<svg width="167" height="50" viewBox="0 0 167 50" fill="none" xmlns="http://www.w3.org/2000/svg">
<path d="M135.981 0.00582115H11.7752C11.3211 0.00582115 10.8757 0.00582177 10.4245 0.00873283C10.0461 0.0116439 9.67055 0.0174647 9.2892 0.0232868C8.45954 0.03202 7.6328 0.104797 6.8148 0.241616C5.99679 0.381347 5.20789 0.640433 4.46848 1.01596C3.72907 1.3944 3.05661 1.88637 2.46858 2.47149C1.88054 3.05661 1.38857 3.73198 1.01305 4.4743C0.637521 5.21371 0.378438 6.00552 0.241619 6.82353C0.104799 7.64153 0.0291083 8.46537 0.0203751 9.29502C0.00873087 9.67346 0.00582212 10.0519 0 10.4332V38.9704C0.00582212 39.3546 0.00873087 39.7243 0.0203751 40.1086C0.0291083 40.9353 0.104799 41.7621 0.241619 42.5801C0.378438 43.3981 0.637521 44.1928 1.01305 44.9322C1.38857 45.6687 1.87763 46.3441 2.46858 46.9234C3.0537 47.5114 3.72616 48.0034 4.46557 48.3789C5.20498 48.7545 5.99678 49.0164 6.81188 49.1591C7.62989 49.293 8.45663 49.3658 9.28628 49.3774C9.66763 49.3862 10.0432 49.3891 10.4216 49.3891C10.8728 49.392 11.3211 49.392 11.7723 49.392H154.973C155.416 49.392 155.867 49.392 156.312 49.3891C156.688 49.3891 157.075 49.3833 157.451 49.3745C158.277 49.3658 159.104 49.293 159.919 49.1562C160.74 49.0165 161.532 48.7515 162.274 48.376C163.014 48.0005 163.689 47.5085 164.271 46.9205C164.859 46.3383 165.351 45.6629 165.73 44.9293C166.102 44.1899 166.361 43.3952 166.495 42.5772C166.632 41.7592 166.708 40.9353 166.725 40.1057C166.731 39.7214 166.731 39.3517 166.731 38.9675C166.74 38.5192 166.74 38.0738 166.74 37.6167V11.7782C166.74 11.3269 166.74 10.8786 166.731 10.4303C166.731 10.0519 166.731 9.67345 166.725 9.2921C166.711 8.46536 166.635 7.63863 166.495 6.82062C166.361 6.00261 166.102 5.2108 165.73 4.47139C164.967 2.98675 163.759 1.77575 162.274 1.01305C161.532 0.637521 160.737 0.378438 159.919 0.238707C159.101 0.101887 158.277 0.0291105 157.451 0.0203773C157.075 0.0145552 156.688 0.00582052 156.312 0.00290946C155.87 -1.59903e-06 155.419 0 154.973 0H135.981V0.00582115Z" fill="#CCCED3"/>
<path d="M10.4304 48.3121C10.0549 48.3121 9.6881 48.3063 9.31549 48.3005C8.54115 48.2888 7.76971 48.2219 7.00701 48.0996C6.29381 47.9774 5.60679 47.7474 4.96054 47.4213C4.32302 47.0982 3.74081 46.6761 3.23719 46.1667C2.72484 45.6631 2.29983 45.0808 1.9767 44.4433C1.65066 43.8 1.4236 43.1101 1.30716 42.3968C1.18198 41.6312 1.11212 40.8569 1.10338 40.0826C1.09465 39.8235 1.08301 38.956 1.08301 38.956V10.4363C1.08301 10.4363 1.09465 9.58045 1.10338 9.33301C1.11212 8.55867 1.18198 7.78433 1.30716 7.02163C1.4236 6.30842 1.65067 5.61559 1.97962 4.96933C2.30274 4.3289 2.72485 3.74668 3.23428 3.24307C3.74081 2.73364 4.32593 2.30862 4.96345 1.97967C5.6068 1.65654 6.29381 1.42948 7.00411 1.31013C7.76971 1.18495 8.54406 1.11508 9.3184 1.10635L10.4333 1.0918H156.31L157.436 1.10926C158.205 1.118 158.973 1.18495 159.73 1.31013C160.446 1.43239 161.142 1.65945 161.794 1.9884C163.075 2.64921 164.117 3.69428 164.775 4.97515C165.095 5.6185 165.319 6.3026 165.436 7.00998C165.564 7.78141 165.637 8.55867 165.651 9.33883C165.654 9.68816 165.654 10.0637 165.654 10.4392C165.663 10.9021 165.663 11.3416 165.663 11.787V37.6256C165.663 38.0739 165.663 38.5106 165.654 38.9531C165.654 39.3548 165.654 39.7216 165.648 40.1C165.634 40.8656 165.564 41.6312 165.439 42.3881C165.325 43.1042 165.098 43.8 164.772 44.4491C164.446 45.0808 164.024 45.6601 163.517 46.1609C163.014 46.6703 162.429 47.0982 161.788 47.4243C161.139 47.7532 160.446 47.9832 159.73 48.1025C158.967 48.2248 158.196 48.2947 157.422 48.3034C157.061 48.3121 156.682 48.3179 156.312 48.3179L154.973 48.3209L10.4304 48.3121Z" fill="#FBFBFB"/>
<path d="M40.3622 24.5631C40.3913 22.3856 41.5325 20.374 43.3868 19.2329C42.2108 17.5532 40.3127 16.5256 38.2634 16.4616C36.1063 16.2345 34.019 17.7512 32.9186 17.7512C31.7979 17.7512 30.1066 16.482 28.2871 16.5198C25.8913 16.5984 23.711 17.9288 22.5436 20.0218C20.0605 24.3214 21.9119 30.6384 24.2903 34.1143C25.4809 35.8172 26.8724 37.7152 28.6918 37.6483C30.4734 37.5755 31.1371 36.513 33.2883 36.513C35.4163 36.513 36.0422 37.6483 37.8995 37.6046C39.8091 37.5755 41.0143 35.8958 42.1613 34.1783C43.0171 32.9644 43.675 31.6253 44.1117 30.2076C41.841 29.2499 40.3651 27.0258 40.3622 24.5631ZM36.8573 14.1764C37.8995 12.9246 38.4118 11.3177 38.2895 9.69336C36.6972 9.85929 35.2271 10.622 34.1704 11.8243C33.1282 13.012 32.5984 14.5636 32.7032 16.1384C34.313 16.1559 35.8443 15.4311 36.8573 14.1764Z" fill="#010202"/>
<path d="M61.7298 33.5137H55.8873L54.4812 37.6561H52.0068L57.5408 22.3236H60.1112L65.6481 37.6561H63.13L61.7298 33.5137ZM56.4899 31.6011H61.1214L58.8362 24.8766H58.7721C58.7751 24.8766 56.4899 31.6011 56.4899 31.6011ZM77.6038 32.0669C77.6038 35.5398 75.7436 37.7726 72.9374 37.7726C71.4877 37.8483 70.1224 37.0885 69.4208 35.8163H69.3684V41.3532H67.0745V26.4777H69.2956V28.3378H69.3364C70.0671 27.0744 71.4353 26.3146 72.8966 26.3612C75.7349 26.3641 77.6038 28.6056 77.6038 32.0669ZM75.2458 32.0669C75.2458 29.805 74.0756 28.3174 72.2911 28.3174C70.5387 28.3174 69.3597 29.837 69.3597 32.0698C69.3597 34.323 70.5387 35.8309 72.2911 35.8309C74.0756 35.8309 75.2458 34.3521 75.2458 32.0669ZM89.9059 32.0669C89.9059 35.5398 88.0458 37.7726 85.2395 37.7726C83.7898 37.8483 82.4245 37.0885 81.7229 35.8163H81.6705V41.3532H79.3766V26.4777H81.5978V28.3378H81.6385C82.3721 27.0744 83.7374 26.3146 85.1988 26.3612C88.037 26.3641 89.9059 28.6056 89.9059 32.0669ZM87.548 32.0669C87.548 29.805 86.3777 28.3174 84.5933 28.3174C82.8408 28.3174 81.6618 29.837 81.6618 32.0698C81.6618 34.323 82.8408 35.8309 84.5933 35.8309C86.3777 35.8309 87.548 34.3521 87.548 32.0669ZM98.0365 33.3856C98.2083 34.9052 99.6842 35.9037 101.702 35.9037C103.635 35.9037 105.026 34.9052 105.026 33.5341C105.026 32.3434 104.188 31.6331 102.199 31.1441L100.211 30.6667C97.3961 29.9855 96.089 28.6697 96.089 26.533C96.089 23.8868 98.3946 22.0703 101.667 22.0703C104.907 22.0703 107.128 23.8868 107.203 26.533H104.886C104.747 25.0018 103.483 24.0789 101.635 24.0789C99.7861 24.0789 98.5227 25.0134 98.5227 26.3729C98.5227 27.4587 99.332 28.0933 101.309 28.5824L102.997 28.9986C106.144 29.741 107.448 31.0073 107.448 33.2488C107.448 36.1162 105.163 37.9152 101.53 37.9152C98.1297 37.9152 95.8329 36.1598 95.6844 33.3885C95.6873 33.3856 98.0365 33.3856 98.0365 33.3856ZM112.406 23.8344V26.4806H114.531V28.2971H112.406V34.4598C112.406 35.4175 112.831 35.8629 113.765 35.8629C114.018 35.8571 114.269 35.8396 114.519 35.8105V37.6154C114.097 37.694 113.672 37.7289 113.244 37.7231C110.982 37.7231 110.097 36.8731 110.097 34.7072V28.3H108.47V26.4835H110.097V23.8344H112.406ZM115.759 32.0669C115.759 28.5503 117.832 26.3408 121.06 26.3408C124.3 26.3408 126.364 28.5503 126.364 32.0669C126.364 35.5951 124.312 37.793 121.06 37.793C117.811 37.7959 115.759 35.5951 115.759 32.0669ZM124.026 32.0669C124.026 29.6536 122.92 28.2301 121.06 28.2301C119.203 28.2301 118.097 29.6653 118.097 32.0669C118.097 34.4889 119.203 35.9008 121.06 35.9008C122.92 35.9037 124.026 34.4918 124.026 32.0669ZM128.256 26.4777H130.445V28.3786H130.498C130.803 27.153 131.924 26.3117 133.185 26.3583C133.45 26.3583 133.715 26.3874 133.971 26.4427V28.5882C133.636 28.4863 133.289 28.4397 132.94 28.4484C132.265 28.4222 131.613 28.6901 131.153 29.1849C130.693 29.6798 130.472 30.3494 130.55 31.0218V37.6503H128.253V26.4777H128.256ZM144.552 34.3725C144.244 36.4015 142.267 37.793 139.74 37.793C136.489 37.793 134.471 35.6155 134.471 32.1193C134.471 28.6144 136.5 26.3379 139.644 26.3379C142.736 26.3379 144.68 28.463 144.68 31.8515V32.6375H136.786V32.7772C136.713 33.6098 136.998 34.4336 137.575 35.0391C138.151 35.6446 138.957 35.9735 139.793 35.9444C140.908 36.0492 141.956 35.4088 142.375 34.3725H144.552ZM136.794 31.0364H142.384C142.424 30.2882 142.154 29.5576 141.633 29.019C141.112 28.4805 140.39 28.1835 139.641 28.1981C138.887 28.1923 138.163 28.4892 137.627 29.0248C137.094 29.5576 136.792 30.2824 136.794 31.0364Z" fill="#010202"/>
<path d="M56.2037 10.7858C57.1789 10.7159 58.1308 11.0856 58.8032 11.7959C59.4757 12.5033 59.793 13.4756 59.6707 14.445C59.6707 16.8 58.3986 18.1507 56.2037 18.1507H53.543V10.7828H56.2037V10.7858ZM54.687 17.1115H56.0756C56.7713 17.1522 57.4496 16.8786 57.9212 16.3663C58.3928 15.8539 58.6082 15.1524 58.5063 14.4624C58.5995 13.7754 58.3841 13.0826 57.9125 12.5731C57.4409 12.0637 56.7684 11.7901 56.0756 11.8279H54.687V17.1115ZM60.9603 15.3707C60.8643 14.3722 61.3417 13.4086 62.1917 12.8817C63.0418 12.3519 64.1189 12.3519 64.9689 12.8817C65.8189 13.4086 66.2963 14.3722 66.2003 15.3707C66.2963 16.3692 65.8218 17.3327 64.9689 17.8625C64.1189 18.3924 63.0418 18.3924 62.1888 17.8625C61.3417 17.3356 60.8643 16.3692 60.9603 15.3707ZM65.0766 15.3707C65.0766 14.1655 64.5351 13.461 63.5861 13.461C62.6313 13.461 62.0957 14.1655 62.0957 15.3707C62.0957 16.5875 62.6313 17.2862 63.5861 17.2862C64.5351 17.2862 65.0766 16.5817 65.0766 15.3707ZM73.1752 18.1537H72.0369L70.8871 14.0607H70.7997L69.6557 18.1537H68.5291L66.995 12.5935H68.107L69.1026 16.8349H69.1841L70.3252 12.5935H71.379L72.5202 16.8349H72.6075L73.5973 12.5935H74.6947L73.1752 18.1537ZM75.9902 12.5935H77.0469V13.4756H77.1284C77.4137 12.8264 78.0803 12.4276 78.7877 12.4858C79.335 12.4451 79.8735 12.6547 80.2461 13.0564C80.6217 13.4581 80.7934 14.0083 80.7119 14.5527V18.1507H79.6144V14.8263C79.6144 13.9326 79.2273 13.4901 78.4151 13.4901C78.0425 13.4727 77.6815 13.6182 77.4282 13.8889C77.1721 14.1597 77.0498 14.5294 77.0876 14.8991V18.1507H75.9902V12.5935ZM82.4615 10.4219H83.5589V18.1507H82.4615V10.4219ZM85.0814 15.3707C84.9853 14.3722 85.4628 13.4086 86.3157 12.8817C87.1657 12.3519 88.2428 12.3519 89.0928 12.8817C89.9429 13.4086 90.4232 14.3722 90.3271 15.3707C90.4232 16.3692 89.9487 17.3327 89.0958 17.8625C88.2428 18.3924 87.1657 18.3924 86.3157 17.8625C85.4628 17.3356 84.9853 16.3692 85.0814 15.3707ZM89.1976 15.3707C89.1976 14.1655 88.6562 13.461 87.7072 13.461C86.7524 13.461 86.2167 14.1655 86.2167 15.3707C86.2167 16.5875 86.7524 17.2862 87.7072 17.2862C88.6562 17.2862 89.1976 16.5817 89.1976 15.3707ZM91.4828 16.5817C91.4828 15.5803 92.2281 15.0039 93.5497 14.9224L95.0547 14.835V14.3547C95.0547 13.7667 94.6675 13.4377 93.9165 13.4377C93.3052 13.4377 92.8801 13.6619 92.7579 14.0549H91.6953C91.806 13.1 92.7055 12.4887 93.966 12.4887C95.3604 12.4887 96.1463 13.1816 96.1463 14.3576V18.1566H95.0896V17.3735H95.0023C94.6442 17.9441 94.0038 18.2788 93.3314 18.2468C92.8598 18.2963 92.3882 18.142 92.0359 17.8247C91.6866 17.5074 91.4828 17.0562 91.4828 16.5817ZM95.0547 16.1072V15.6414L93.6952 15.7287C92.9296 15.7811 92.5832 16.0402 92.5832 16.5322C92.5832 17.0329 93.017 17.324 93.6137 17.324C93.966 17.3589 94.3211 17.2512 94.5918 17.0212C94.8655 16.7884 95.0314 16.4594 95.0547 16.1072ZM97.5902 15.3707C97.5902 13.6124 98.4927 12.5004 99.8987 12.5004C100.606 12.4684 101.273 12.8468 101.605 13.4756H101.686V10.4219H102.784V18.1537H101.733V17.2745H101.645C101.29 17.8975 100.615 18.273 99.8987 18.2439C98.4839 18.2439 97.5902 17.1319 97.5902 15.3707ZM98.7226 15.3707C98.7226 16.5497 99.2786 17.26 100.207 17.26C101.133 17.26 101.704 16.5409 101.704 15.3765C101.704 14.2179 101.124 13.4872 100.207 13.4872C99.2874 13.4872 98.7226 14.2004 98.7226 15.3707ZM107.322 15.3707C107.226 14.3722 107.703 13.4086 108.553 12.8817C109.403 12.3519 110.48 12.3519 111.33 12.8817C112.18 13.4086 112.658 14.3722 112.562 15.3707C112.658 16.3692 112.183 17.3327 111.33 17.8625C110.48 18.3924 109.403 18.3924 108.55 17.8625C107.7 17.3356 107.223 16.3692 107.322 15.3707ZM111.438 15.3707C111.438 14.1655 110.897 13.461 109.948 13.461C108.993 13.461 108.457 14.1655 108.457 15.3707C108.457 16.5875 108.993 17.2862 109.948 17.2862C110.897 17.2862 111.438 16.5817 111.438 15.3707ZM114.038 12.5935H115.094V13.4756H115.176C115.461 12.8264 116.128 12.4276 116.835 12.4858C117.383 12.4451 117.921 12.6547 118.294 13.0564C118.669 13.4581 118.838 14.0083 118.759 14.5527V18.1507H117.662V14.8263C117.662 13.9326 117.275 13.4901 116.463 13.4901C116.09 13.4727 115.732 13.6182 115.476 13.8889C115.223 14.1597 115.097 14.5294 115.138 14.8991V18.1507H114.041V12.5935H114.038ZM124.96 11.2108V12.6197H126.165V13.5425H124.96V16.4012C124.96 16.9834 125.199 17.2396 125.746 17.2396C125.886 17.2396 126.025 17.2308 126.165 17.2134V18.1275C125.967 18.1624 125.769 18.1828 125.568 18.1857C124.349 18.1857 123.863 17.7548 123.863 16.6836V13.5425H122.978V12.6197H123.86V11.2108H124.96ZM127.662 10.4219H128.75V13.4843H128.838C129.134 12.8293 129.813 12.4305 130.532 12.4887C131.076 12.4596 131.606 12.675 131.979 13.0739C132.348 13.4756 132.52 14.0199 132.447 14.5614V18.1507H131.35V14.8292C131.35 13.9413 130.936 13.4901 130.162 13.4901C129.781 13.4581 129.405 13.5978 129.135 13.8715C128.864 14.1422 128.73 14.5206 128.762 14.902V18.1507H127.664V10.4219H127.662ZM138.843 16.6515C138.534 17.6995 137.521 18.3778 136.433 18.2585C135.693 18.2788 134.98 17.9703 134.485 17.4172C133.99 16.8641 133.763 16.1217 133.865 15.3881C133.766 14.6516 133.993 13.9064 134.485 13.3504C134.977 12.7915 135.684 12.4771 136.43 12.4829C137.975 12.4829 138.91 13.5396 138.91 15.2863V15.6676H134.986V15.7287C134.951 16.1421 135.093 16.5497 135.373 16.8524C135.655 17.1552 136.051 17.3269 136.465 17.3211C137.003 17.3851 137.524 17.1202 137.789 16.6457L138.843 16.6515ZM134.986 14.8612H137.795C137.821 14.4828 137.69 14.1131 137.428 13.8395C137.169 13.5629 136.802 13.4144 136.424 13.4203C136.04 13.4144 135.67 13.5658 135.399 13.8395C135.128 14.1073 134.98 14.477 134.986 14.8612Z" fill="#010202"/>
</svg>
