<svg width="167" height="50" viewBox="0 0 167 50" fill="none" xmlns="http://www.w3.org/2000/svg">
<path fill-rule="evenodd" clip-rule="evenodd" d="M160.826 49.3862H6.49565C3.10135 49.3862 0.321289 46.609 0.321289 43.2118V6.17436C0.321289 2.78006 3.09844 0 6.49565 0H160.826C164.22 0 167 2.77715 167 6.17436V43.2147C167 46.609 164.223 49.3862 160.826 49.3862Z" fill="#FBFBFB"/>
<path d="M69.8872 38.0187C72.7988 38.0187 75.1591 35.6675 75.1591 32.7672C75.1591 29.8668 72.7988 27.5156 69.8872 27.5156C66.9756 27.5156 64.6152 29.8668 64.6152 32.7672C64.6152 35.6675 66.9756 38.0187 69.8872 38.0187Z" fill="black"/>
<path d="M81.3852 38.0187C84.2968 38.0187 86.6571 35.6675 86.6571 32.7672C86.6571 29.8668 84.2968 27.5156 81.3852 27.5156C78.4736 27.5156 76.1133 29.8668 76.1133 32.7672C76.1133 35.6675 78.4736 38.0187 81.3852 38.0187Z" fill="black"/>
<path fill-rule="evenodd" clip-rule="evenodd" d="M160.826 0.00390625H6.49565C3.10135 0.00390625 0.321289 2.78106 0.321289 6.17827V43.2186C0.321289 46.6129 3.09844 49.393 6.49565 49.393H160.826C164.22 49.393 167 46.6158 167 43.2186V6.17535C167 2.78105 164.223 0.00390625 160.826 0.00390625ZM160.826 0.990751C163.684 0.990751 166.01 3.31669 166.01 6.17535V43.2157C166.01 46.0744 163.684 48.4003 160.826 48.4003H6.49565C3.63699 48.4003 1.31105 46.0744 1.31105 43.2157V6.17535C1.31105 3.31669 3.63699 0.990751 6.49565 0.990751H160.826Z" fill="#CCCED3"/>
<path fill-rule="evenodd" clip-rule="evenodd" d="M58.8681 12.6491C58.8681 13.6854 58.5624 14.5064 57.9482 15.1235C57.2495 15.8542 56.3442 16.2181 55.2264 16.2181C54.158 16.2181 53.2468 15.8484 52.5016 15.106C51.7506 14.3666 51.3779 13.4438 51.3779 12.3493C51.3779 11.2518 51.7506 10.3319 52.5016 9.5925C53.2468 8.85309 54.158 8.48047 55.2264 8.48047C55.7562 8.48047 56.2656 8.58527 56.7459 8.78904C57.2292 8.99573 57.6163 9.27228 57.9045 9.61578L57.2525 10.2679C56.7634 9.68273 56.088 9.38872 55.2234 9.38872C54.4433 9.38872 53.7708 9.66235 53.2003 10.2125C52.6297 10.7627 52.3473 11.473 52.3473 12.3493C52.3473 13.2255 52.6326 13.9358 53.2003 14.486C53.7679 15.0362 54.4433 15.3069 55.2234 15.3069C56.0502 15.3069 56.7401 15.0304 57.2932 14.4802C57.6513 14.1192 57.858 13.6214 57.9133 12.981H55.2234V12.0902H58.8128C58.8506 12.2823 58.8681 12.4686 58.8681 12.6491Z" fill="#010202"/>
<path d="M58.8681 12.6491C58.8681 13.6854 58.5624 14.5064 57.9482 15.1235C57.2495 15.8542 56.3442 16.2181 55.2264 16.2181C54.158 16.2181 53.2468 15.8484 52.5016 15.106C51.7506 14.3666 51.3779 13.4438 51.3779 12.3493C51.3779 11.2518 51.7506 10.3319 52.5016 9.5925C53.2468 8.85309 54.158 8.48047 55.2264 8.48047C55.7562 8.48047 56.2656 8.58527 56.7459 8.78904C57.2292 8.99573 57.6163 9.27228 57.9045 9.61578L57.2525 10.2679C56.7634 9.68273 56.088 9.38872 55.2234 9.38872C54.4433 9.38872 53.7708 9.66235 53.2003 10.2125C52.6297 10.7627 52.3473 11.473 52.3473 12.3493C52.3473 13.2255 52.6326 13.9358 53.2003 14.486C53.7679 15.0362 54.4433 15.3069 55.2234 15.3069C56.0502 15.3069 56.7401 15.0304 57.2932 14.4802C57.6513 14.1192 57.858 13.6214 57.9133 12.981H55.2234V12.0902H58.8128C58.8506 12.2823 58.8681 12.4686 58.8681 12.6491Z" stroke="#010202" stroke-width="0.2"/>
<path fill-rule="evenodd" clip-rule="evenodd" d="M64.5592 9.55473H61.1853V11.904H64.2245V12.7947H61.1853V15.144H64.5592V16.0551H60.2334V8.64648H64.5592V9.55473Z" fill="#010202"/>
<path d="M64.5592 9.55473H61.1853V11.904H64.2245V12.7947H61.1853V15.144H64.5592V16.0551H60.2334V8.64648H64.5592V9.55473Z" stroke="#010202" stroke-width="0.2"/>
<path fill-rule="evenodd" clip-rule="evenodd" d="M68.5715 16.0512H67.6196V9.55374H65.5498V8.64258H70.6412V9.55374H68.5715V16.0512Z" fill="#010202"/>
<path d="M68.5715 16.0512H67.6196V9.55374H65.5498V8.64258H70.6412V9.55374H68.5715V16.0512Z" stroke="#010202" stroke-width="0.2"/>
<path fill-rule="evenodd" clip-rule="evenodd" d="M74.3232 16.0512H75.2752V8.64258H74.3232V16.0512Z" fill="#010202"/>
<path d="M74.3232 16.0512H75.2752V8.64258H74.3232V16.0512Z" stroke="#010202" stroke-width="0.2"/>
<path fill-rule="evenodd" clip-rule="evenodd" d="M79.4992 16.0512H78.5473V9.55374H76.4775V8.64258H81.569V9.55374H79.4992V16.0512Z" fill="#010202"/>
<path d="M79.4992 16.0512H78.5473V9.55374H76.4775V8.64258H81.569V9.55374H79.4992V16.0512Z" stroke="#010202" stroke-width="0.2"/>
<path fill-rule="evenodd" clip-rule="evenodd" d="M86.4739 14.4734C87.0211 15.0294 87.6936 15.3059 88.4883 15.3059C89.2801 15.3059 89.9497 15.0294 90.4999 14.4734C91.0472 13.9173 91.3237 13.21 91.3237 12.3483C91.3237 11.4866 91.0472 10.7763 90.4999 10.2232C89.9526 9.66719 89.2801 9.39064 88.4883 9.39064C87.6936 9.39064 87.0241 9.6701 86.4768 10.2232C85.9295 10.7763 85.653 11.4866 85.653 12.3483C85.653 13.21 85.9266 13.9173 86.4739 14.4734ZM91.2043 15.0934C90.4737 15.8445 89.5712 16.2171 88.4883 16.2171C87.4054 16.2171 86.5001 15.8445 85.7723 15.0934C85.0445 14.3453 84.6807 13.4312 84.6807 12.3483C84.6807 11.2654 85.0445 10.3484 85.7723 9.60024C86.5001 8.85209 87.4025 8.47656 88.4854 8.47656C89.5625 8.47656 90.4649 8.85209 91.1956 9.60314C91.9263 10.3542 92.2902 11.2683 92.2902 12.3454C92.296 13.4312 91.9321 14.3453 91.2043 15.0934Z" fill="#010202"/>
<path d="M86.4739 14.4734C87.0211 15.0294 87.6936 15.3059 88.4883 15.3059C89.2801 15.3059 89.9497 15.0294 90.4999 14.4734C91.0472 13.9173 91.3237 13.21 91.3237 12.3483C91.3237 11.4866 91.0472 10.7763 90.4999 10.2232C89.9526 9.66719 89.2801 9.39064 88.4883 9.39064C87.6936 9.39064 87.0241 9.6701 86.4768 10.2232C85.9295 10.7763 85.653 11.4866 85.653 12.3483C85.653 13.21 85.9266 13.9173 86.4739 14.4734ZM91.2043 15.0934C90.4737 15.8445 89.5712 16.2171 88.4883 16.2171C87.4054 16.2171 86.5001 15.8445 85.7723 15.0934C85.0445 14.3453 84.6807 13.4312 84.6807 12.3483C84.6807 11.2654 85.0445 10.3484 85.7723 9.60024C86.5001 8.85209 87.4025 8.47656 88.4854 8.47656C89.5625 8.47656 90.4649 8.85209 91.1956 9.60314C91.9263 10.3542 92.2902 11.2683 92.2902 12.3454C92.296 13.4312 91.9321 14.3453 91.2043 15.0934Z" stroke="#010202" stroke-width="0.2"/>
<path fill-rule="evenodd" clip-rule="evenodd" d="M93.6328 16.0512V8.64258H94.7914L98.3924 14.4036H98.4331L98.3924 12.9771V8.64258H99.3472V16.0512H98.3516L94.5847 10.0079H94.544L94.5847 11.4372V16.0512H93.6328Z" fill="#010202"/>
<path d="M93.6328 16.0512V8.64258H94.7914L98.3924 14.4036H98.4331L98.3924 12.9771V8.64258H99.3472V16.0512H98.3516L94.5847 10.0079H94.544L94.5847 11.4372V16.0512H93.6328Z" stroke="#010202" stroke-width="0.2"/>
<path d="M131.596 22.2656H129.293V37.7001H131.596V22.2656Z" fill="black"/>
<path fill-rule="evenodd" clip-rule="evenodd" d="M150.043 27.8262L147.403 34.5187H147.321L144.582 27.8262H142.099L146.209 37.1765L143.866 42.3815H146.267L152.602 27.8262H150.043Z" fill="black"/>
<path fill-rule="evenodd" clip-rule="evenodd" d="M137.255 27.4883C135.587 27.4883 133.861 28.2219 133.145 29.8521L135.188 30.705C135.625 29.8521 136.44 29.5726 137.293 29.5726C138.484 29.5726 139.695 30.2887 139.715 31.5579V31.7181C139.296 31.4793 138.405 31.1242 137.313 31.1242C135.107 31.1242 132.865 32.3352 132.865 34.5971C132.865 36.6639 134.673 37.9943 136.699 37.9943C138.245 37.9943 139.101 37.2986 139.636 36.4835H139.715V37.6741H141.939V31.7559C141.942 29.0166 139.895 27.4883 137.255 27.4883Z" fill="black"/>
<path fill-rule="evenodd" clip-rule="evenodd" d="M122.959 22.2656H117.439V37.7001H119.742V31.8518H122.959C125.512 31.8518 128.021 30.0032 128.021 27.0572C128.021 24.1142 125.512 22.2656 122.959 22.2656Z" fill="black"/>
<path fill-rule="evenodd" clip-rule="evenodd" d="M95.4984 28.6878H95.4198C94.9017 28.0706 93.9061 27.5117 92.6573 27.5117C90.0315 27.5117 87.624 29.8202 87.624 32.7836C87.624 35.7267 90.0315 38.0148 92.6573 38.0148C93.909 38.0148 94.9046 37.4588 95.4198 36.8242H95.4984V37.5782C95.4984 39.5868 94.4243 40.661 92.6951 40.661C91.2832 40.661 90.407 39.6479 90.0489 38.7921L88.0403 39.6276C88.6167 41.019 90.1479 42.7307 92.6951 42.7307C95.4024 42.7307 97.6876 41.1384 97.6876 37.2609V27.8319H95.4984V28.6878Z" fill="black"/>
<path fill-rule="evenodd" clip-rule="evenodd" d="M99.2803 37.7001H101.589V22.2656H99.2803V37.7001Z" fill="black"/>
<path fill-rule="evenodd" clip-rule="evenodd" d="M112.15 30.8575C111.713 29.6844 110.38 27.5156 107.655 27.5156C104.95 27.5156 102.703 29.6465 102.703 32.7672C102.703 35.7103 104.93 38.0187 107.914 38.0187C110.321 38.0187 111.713 36.5457 112.292 35.6899L110.502 34.4964C109.902 35.3726 109.09 35.949 107.914 35.949C106.741 35.949 105.905 35.4104 105.37 34.3566L112.391 31.4514L112.15 30.8575Z" fill="black"/>
<path fill-rule="evenodd" clip-rule="evenodd" d="M56.2107 29.1283V31.3552H61.5438C61.3837 32.6099 60.9645 33.524 60.3299 34.1586C59.5526 34.9359 58.3387 35.7888 56.2107 35.7888C52.9271 35.7888 50.3624 33.1426 50.3624 29.8619C50.3624 26.5811 52.93 23.935 56.2107 23.935C57.9807 23.935 59.2732 24.6307 60.228 25.5244L61.8 23.9524C60.4667 22.6803 58.6968 21.7051 56.2107 21.7051C51.7161 21.7051 47.9375 25.3672 47.9375 29.8619C47.9375 34.3565 51.7161 38.0158 56.2107 38.0158C58.6386 38.0158 60.4667 37.221 61.8989 35.7277C63.369 34.2547 63.829 32.1878 63.829 30.5169C63.829 30.0016 63.7911 29.5242 63.7096 29.1254L56.2107 29.1283Z" fill="black"/>
<path fill-rule="evenodd" clip-rule="evenodd" d="M27.8625 24.6926L12.9084 9.76758C12.7366 10.114 12.6348 10.539 12.6348 11.0543V38.3367C12.6348 38.8578 12.7396 39.2916 12.9171 39.638L27.8625 24.6926Z" fill="black"/>
<path fill-rule="evenodd" clip-rule="evenodd" d="M12.9521 9.66948C12.9579 9.65499 12.9666 9.6434 12.9753 9.62891C12.9666 9.6434 12.9608 9.65789 12.9521 9.66948Z" fill="black"/>
<path fill-rule="evenodd" clip-rule="evenodd" d="M28.7277 23.8269L33.333 19.2216L15.7735 9.24537C15.2757 8.96008 14.807 8.82617 14.3878 8.82617C14.1753 8.82617 13.9803 8.86401 13.7998 8.93097L28.7277 23.8269Z" fill="black"/>
<path fill-rule="evenodd" clip-rule="evenodd" d="M39.8271 22.913L34.4446 19.8535L29.6006 24.6975L34.4446 29.5299L39.8271 26.4704C41.5505 25.4951 41.5505 23.8912 39.8271 22.913Z" fill="black"/>
<path fill-rule="evenodd" clip-rule="evenodd" d="M28.7387 25.5645L13.8428 40.4662C14.3755 40.6467 15.0421 40.5593 15.7728 40.146L33.344 30.1581L28.7387 25.5645Z" fill="black"/>
<path fill-rule="evenodd" clip-rule="evenodd" d="M12.9375 39.6836C13.0072 39.8113 13.0855 39.9274 13.1755 40.0261C13.0855 39.9216 13.0014 39.8113 12.9375 39.6836Z" fill="black"/>
<path d="M69.8873 29.5859C68.2978 29.5859 66.9238 30.8784 66.9238 32.7677C66.9238 34.6366 68.2949 35.9524 69.8873 35.9524C71.4796 35.9524 72.8507 34.6395 72.8507 32.7677C72.8507 30.8784 71.4796 29.5859 69.8873 29.5859Z" fill="white"/>
<path d="M84.3488 32.7677C84.3488 30.8784 82.9777 29.5859 81.3853 29.5859C79.7959 29.5859 78.4219 30.8784 78.4219 32.7677C78.4219 34.6366 79.793 35.9524 81.3853 35.9524C82.9777 35.9524 84.3488 34.6366 84.3488 32.7677Z" fill="white"/>
<path fill-rule="evenodd" clip-rule="evenodd" d="M92.8553 35.9515C91.2659 35.9515 89.9326 34.6182 89.9326 32.7901C89.9326 30.9386 91.2659 29.5879 92.8582 29.5879C94.4273 29.5879 95.6616 30.9415 95.6616 32.7901C95.6587 34.6182 94.4244 35.9486 92.8553 35.9515Z" fill="#FBFBFB"/>
<path fill-rule="evenodd" clip-rule="evenodd" d="M123.017 29.7054H119.739V24.416H123.017C124.74 24.416 125.719 25.8424 125.719 27.0593C125.716 28.2557 124.738 29.7054 123.017 29.7054Z" fill="white"/>
<path fill-rule="evenodd" clip-rule="evenodd" d="M104.989 32.6093C104.931 30.5803 106.561 29.5469 107.737 29.5469C108.651 29.5469 109.428 30.0068 109.684 30.6618L104.989 32.6093Z" fill="white"/>
<path fill-rule="evenodd" clip-rule="evenodd" d="M136.976 35.9479C136.222 35.9479 135.168 35.5694 135.168 34.6379C135.168 33.4473 136.478 32.9902 137.61 32.9902C138.62 32.9902 139.101 33.2086 139.715 33.5055C139.537 34.9348 138.306 35.9479 136.976 35.9479Z" fill="#FBFBFB"/>
</svg>
