<svg width="500" height="500" viewBox="0 0 500 500" fill="none" xmlns="http://www.w3.org/2000/svg">
<path d="M283.18 449.97C283.18 442.45 320.51 436.35 366.56 436.35C412.61 436.35 449.94 442.45 449.94 449.97C449.94 457.49 412.61 463.59 366.56 463.59C320.51 463.58 283.18 457.49 283.18 449.97Z" fill="#FFC5C1"/>
<path d="M103.68 441.91C103.68 434.39 154.17 428.29 216.45 428.29C278.73 428.29 329.22 434.39 329.22 441.91C329.22 449.43 278.73 455.53 216.45 455.53C154.17 455.52 103.68 449.43 103.68 441.91Z" fill="#FFC5C1"/>
<path d="M29.7305 403.07H113.69" stroke="#263238" stroke-width="2" stroke-miterlimit="10" stroke-linecap="round" stroke-linejoin="round"/>
<path d="M401.711 403.07H473.071" stroke="#263238" stroke-width="2" stroke-miterlimit="10" stroke-linecap="round" stroke-linejoin="round"/>
<path d="M311.23 403.07H341.54" stroke="#263238" stroke-width="2" stroke-miterlimit="10" stroke-linecap="round" stroke-linejoin="round"/>
<path d="M49.2607 253.94V257.88" stroke="#263238" stroke-width="2" stroke-miterlimit="10" stroke-linecap="round" stroke-linejoin="round"/>
<path d="M49.2607 262.32V266.26" stroke="#263238" stroke-width="2" stroke-miterlimit="10" stroke-linecap="round" stroke-linejoin="round"/>
<path d="M43.1104 260.1H47.0504" stroke="#263238" stroke-width="2" stroke-miterlimit="10" stroke-linecap="round" stroke-linejoin="round"/>
<path d="M51.4805 260.1H55.4205" stroke="#263238" stroke-width="2" stroke-miterlimit="10" stroke-linecap="round" stroke-linejoin="round"/>
<path d="M264.991 51.6801V55.6201" stroke="#263238" stroke-width="2" stroke-miterlimit="10" stroke-linecap="round" stroke-linejoin="round"/>
<path d="M264.991 60.05V63.9901" stroke="#263238" stroke-width="2" stroke-miterlimit="10" stroke-linecap="round" stroke-linejoin="round"/>
<path d="M258.841 57.8401H262.781" stroke="#263238" stroke-width="2" stroke-miterlimit="10" stroke-linecap="round" stroke-linejoin="round"/>
<path d="M267.211 57.8401H271.151" stroke="#263238" stroke-width="2" stroke-miterlimit="10" stroke-linecap="round" stroke-linejoin="round"/>
<path d="M453.021 291.8V295.74" stroke="#263238" stroke-width="2" stroke-miterlimit="10" stroke-linecap="round" stroke-linejoin="round"/>
<path d="M453.021 300.18V304.12" stroke="#263238" stroke-width="2" stroke-miterlimit="10" stroke-linecap="round" stroke-linejoin="round"/>
<path d="M446.86 297.96H450.8" stroke="#263238" stroke-width="2" stroke-miterlimit="10" stroke-linecap="round" stroke-linejoin="round"/>
<path d="M455.24 297.96H459.18" stroke="#263238" stroke-width="2" stroke-miterlimit="10" stroke-linecap="round" stroke-linejoin="round"/>
<path d="M437.16 120.7C435.62 133.7 433.1 152.06 429.95 181.01C429.73 183.04 433.39 179.9 435.53 180.29C437.67 180.68 436.87 183.06 439.2 182.67C441.54 182.28 442.48 179.13 445.01 180.01C447.54 180.89 447.1 183.64 450.51 183.25C453.92 182.86 453.73 180.53 456.55 180.53C459.38 180.53 462 184.72 463.56 182.97C465.12 181.22 468.49 137.51 469.6 121.79C469.69 120.51 466.87 120.13 463.85 120.33C460.83 120.53 460.44 122.77 458.2 122.28C455.96 121.79 454.98 118.97 452.06 118.97C449.14 118.97 448.69 123.07 446.25 122.58C443.81 122.09 443.39 119.75 441.63 119.16C439.89 118.55 437.46 118.18 437.16 120.7Z" stroke="#263238" stroke-width="2" stroke-miterlimit="10" stroke-linecap="round" stroke-linejoin="round"/>
<path d="M465.06 174.43C467.08 175.52 468.87 177.58 470.04 176.26C471.6 174.51 474.97 130.8 476.08 115.08C476.17 113.8 473.35 113.42 470.33 113.62C467.31 113.81 466.92 116.05 464.68 115.57C462.44 115.08 461.46 112.26 458.54 112.26C455.62 112.26 455.17 116.36 452.73 115.87C450.29 115.38 449.87 113.04 448.11 112.45C446.36 111.87 443.93 111.49 443.63 114.01C443.41 115.91 443.16 117.92 442.89 120.07" stroke="#263238" stroke-width="2" stroke-miterlimit="10" stroke-linecap="round" stroke-linejoin="round"/>
<path d="M437.229 164.72L461.869 166.06" stroke="#263238" stroke-width="2" stroke-miterlimit="10" stroke-linecap="round" stroke-linejoin="round"/>
<path d="M436.54 168.92L460.64 170.36" stroke="#263238" stroke-width="2" stroke-miterlimit="10" stroke-linecap="round" stroke-linejoin="round"/>
<path d="M436.01 173.24L459.87 174.55" stroke="#263238" stroke-width="2" stroke-miterlimit="10" stroke-linecap="round" stroke-linejoin="round"/>
<path d="M449.57 129.67L464.87 130.71" stroke="#263238" stroke-width="2" stroke-miterlimit="10" stroke-linecap="round" stroke-linejoin="round"/>
<path d="M449.36 135.31L458.87 135.95L464.66 136.34" stroke="#263238" stroke-width="2" stroke-miterlimit="10" stroke-linecap="round" stroke-linejoin="round"/>
<path d="M448.26 140.96L463.56 142" stroke="#263238" stroke-width="2" stroke-miterlimit="10" stroke-linecap="round" stroke-linejoin="round"/>
<path d="M447.55 146.6L462.85 147.64" stroke="#263238" stroke-width="2" stroke-miterlimit="10" stroke-linecap="round" stroke-linejoin="round"/>
<path d="M447.55 152.24L462.85 153.27" stroke="#263238" stroke-width="2" stroke-miterlimit="10" stroke-linecap="round" stroke-linejoin="round"/>
<path d="M446.52 157.88L461.82 158.92" stroke="#263238" stroke-width="2" stroke-miterlimit="10" stroke-linecap="round" stroke-linejoin="round"/>
<path d="M441.2 128.98L445.91 129.33" stroke="#263238" stroke-width="2" stroke-miterlimit="10" stroke-linecap="round" stroke-linejoin="round"/>
<path d="M441.2 128.98L445.91 129.33" stroke="#263238" stroke-width="2" stroke-miterlimit="10" stroke-linecap="round" stroke-linejoin="round"/>
<path d="M440.55 134.97L445.26 135.32" stroke="#263238" stroke-width="2" stroke-miterlimit="10" stroke-linecap="round" stroke-linejoin="round"/>
<path d="M439.99 140.61L444.7 140.96" stroke="#263238" stroke-width="2" stroke-miterlimit="10" stroke-linecap="round" stroke-linejoin="round"/>
<path d="M439.21 146.25L443.92 146.6" stroke="#263238" stroke-width="2" stroke-miterlimit="10" stroke-linecap="round" stroke-linejoin="round"/>
<path d="M438.2 151.89L442.91 152.24" stroke="#263238" stroke-width="2" stroke-miterlimit="10" stroke-linecap="round" stroke-linejoin="round"/>
<path d="M437.64 157.54L442.35 157.89" stroke="#263238" stroke-width="2" stroke-miterlimit="10" stroke-linecap="round" stroke-linejoin="round"/>
<path d="M70.0399 182.16V184.39C65.3999 185.18 62.7399 187.83 62.8099 192C62.8799 196.19 65.3799 198.5 70.0399 199.84V207.79C69.4299 207.4 68.9199 206.88 68.5099 206.14C68.1999 205.57 67.9899 204.95 67.8299 204.32C67.7399 203.95 67.6899 203.88 67.6799 203.76H63.6299C63.6599 204.06 63.7199 204.72 63.8599 205.3C64.0899 206.24 64.4399 207.18 64.9199 208.08C66.0299 210.15 67.7499 211.6 70.0299 212.19V214.59H74.0999V212.41C78.6299 211.8 81.4499 208.57 81.5199 204.23C81.5699 200.61 79.3299 198.03 74.0999 196.79V188.44C75.0099 188.74 75.7299 189.25 76.1799 190.18C76.4299 190.7 76.6099 191.29 76.7099 191.87C76.7699 192.22 76.7899 192.41 76.7899 192.52H80.8599C80.8499 192.22 80.8099 191.71 80.7099 191.15C80.5499 190.22 80.2699 189.3 79.8399 188.41C78.7299 186.1 76.7799 184.6 74.0999 184.21V182.17H70.0399V182.16ZM70.0399 188.35V195.64C67.8099 194.82 66.9099 193.73 66.8799 191.93C66.8499 190.06 67.7499 188.84 70.0399 188.35ZM74.1099 200.92C76.7099 201.66 77.4799 202.64 77.4599 204.14C77.4299 206.27 76.2899 207.78 74.1099 208.25V200.92Z" stroke="#FFC5C1" stroke-width="2" stroke-miterlimit="10" stroke-linecap="round" stroke-linejoin="round"/>
<path d="M46.9102 198.36C46.9102 184.41 58.2202 173.1 72.1702 173.1C86.1202 173.1 97.4302 184.41 97.4302 198.36C97.4302 212.31 86.1202 223.62 72.1702 223.62C58.2202 223.62 46.9102 212.31 46.9102 198.36Z" stroke="#FFC5C1" stroke-width="2" stroke-miterlimit="10" stroke-linecap="round" stroke-linejoin="round"/>
<path d="M51.4697 198.36C51.4697 186.93 60.7397 177.66 72.1697 177.66C75.8797 177.66 79.3597 178.64 82.3697 180.34C88.6397 183.9 92.8697 190.63 92.8697 198.36C92.8697 209.79 83.5997 219.06 72.1697 219.06C60.7397 219.06 51.4697 209.8 51.4697 198.36Z" stroke="#FFC5C1" stroke-width="2" stroke-miterlimit="10" stroke-linecap="round" stroke-linejoin="round"/>
<path d="M39.1602 421.03C39.1602 417.35 52.4802 414.37 68.9002 414.37C85.3302 414.37 98.6402 417.35 98.6402 421.03C98.6402 424.71 85.3202 427.69 68.9002 427.69C52.4802 427.69 39.1602 424.71 39.1602 421.03Z" fill="#FFC5C1"/>
<path d="M39.8896 366.59C40.3196 389.11 47.4196 408.26 57.4196 416.58V419.08C57.4196 420.15 58.2796 421.03 59.3396 421.03H68.5696H77.7696C78.8396 421.03 79.7197 420.14 79.7197 419.08V416.58C89.7197 408.26 96.7897 389.11 97.2197 366.59H39.8896Z" fill="#E91706"/>
<path d="M44.4805 370.24C44.9605 375.68 55.5105 380.04 68.5505 380.04C81.5905 380.04 92.1405 375.68 92.6205 370.24H44.4805Z" fill="#263238"/>
<path d="M25.79 337.83C25.79 329.87 32.27 323.42 40.27 323.42C48.27 323.42 54.75 329.87 54.75 337.83C54.75 345.79 48.27 352.24 40.27 352.24C32.27 352.24 25.79 345.79 25.79 337.83Z" fill="#FFC5C1"/>
<path d="M52.8398 307.25C52.8398 298.32 60.1098 291.08 69.0798 291.08C78.0498 291.08 85.3198 298.32 85.3198 307.25C85.3198 316.18 78.0498 323.42 69.0798 323.42C60.1098 323.42 52.8398 316.18 52.8398 307.25Z" fill="#FFC5C1"/>
<path d="M80.1299 333.39C80.1299 327.21 85.1599 322.21 91.3599 322.21C97.5599 322.21 102.59 327.22 102.59 333.39C102.59 339.56 97.5599 344.57 91.3599 344.57C85.1599 344.57 80.1299 339.56 80.1299 333.39Z" fill="#FFC5C1"/>
<path d="M69.0898 375.56V307.25" stroke="#263238" stroke-width="2" stroke-miterlimit="10" stroke-linecap="round" stroke-linejoin="round"/>
<path d="M69.0898 348.25L91.1698 333.38" stroke="#263238" stroke-width="2" stroke-miterlimit="10" stroke-linecap="round" stroke-linejoin="round"/>
<path d="M69.0905 358.22L40.2705 337.83" stroke="#263238" stroke-width="2" stroke-miterlimit="10" stroke-linecap="round" stroke-linejoin="round"/>
<path d="M147.32 264.57C147.32 259.12 151.87 254.7 157.48 254.7H268.2C273.81 254.7 278.37 259.12 278.37 264.57V325.12C278.37 330.57 273.82 334.99 268.2 334.99H157.48C151.87 334.99 147.32 330.57 147.32 325.12V264.57Z" fill="#E91706"/>
<path d="M175.91 367.32C175.91 362.94 179.46 359.39 183.84 359.39H241.86C246.24 359.39 249.79 362.94 249.79 367.32V379.9C249.79 384.28 246.24 387.83 241.86 387.83H183.84C179.46 387.83 175.91 384.28 175.91 379.9V367.32Z" fill="#FFC5C1"/>
<path d="M149.24 147.91C149.24 143.4 152.9 139.73 157.42 139.73H268.28C272.8 139.73 276.46 143.39 276.46 147.91V172.05C276.46 176.56 272.8 180.23 268.28 180.23H157.41C152.9 180.23 149.23 176.57 149.23 172.05V147.91H149.24Z" fill="#E91706"/>
<path d="M206.78 198.65C206.78 196.41 208.59 194.6 210.83 194.6H272.41C274.64 194.6 276.46 196.41 276.46 198.65V201.08C276.46 203.31 274.65 205.13 272.41 205.13H210.83C208.6 205.13 206.78 203.32 206.78 201.08V198.65Z" fill="#FFC5C1"/>
<path d="M206.78 216.02C206.78 214.33 208.15 212.96 209.84 212.96H256.42C258.11 212.96 259.48 214.33 259.48 216.02V217.86C259.48 219.55 258.11 220.92 256.42 220.92H209.84C208.15 220.92 206.78 219.55 206.78 217.86V216.02Z" fill="#FFC5C1"/>
<path d="M157.28 200.23C157.28 197.12 159.8 194.61 162.9 194.61H189.38C192.49 194.61 195 197.13 195 200.23V226.71C195 229.82 192.48 232.33 189.38 232.33H162.9C159.79 232.33 157.28 229.81 157.28 226.71V200.23Z" stroke="#263238" stroke-width="2" stroke-miterlimit="10" stroke-linecap="round" stroke-linejoin="round"/>
<path d="M149.94 346.88H276.48" stroke="#263238" stroke-width="2" stroke-miterlimit="10" stroke-linecap="round" stroke-linejoin="round"/>
<path d="M149.94 243.51H276.48" stroke="#263238" stroke-width="2" stroke-miterlimit="10" stroke-linecap="round" stroke-linejoin="round"/>
<path d="M251.46 155.65H261.06" stroke="white" stroke-width="2" stroke-miterlimit="10" stroke-linecap="round" stroke-linejoin="round"/>
<path d="M251.46 159.98H261.06" stroke="white" stroke-width="2" stroke-miterlimit="10" stroke-linecap="round" stroke-linejoin="round"/>
<path d="M251.46 164.31H261.06" stroke="white" stroke-width="2" stroke-miterlimit="10" stroke-linecap="round" stroke-linejoin="round"/>
<path d="M162.18 282.66C162.18 281.72 163.15 280.95 164.35 280.95H172.91C174.11 280.95 175.08 281.71 175.08 282.66V289.39C175.08 290.33 174.11 291.1 172.91 291.1H164.35C163.15 291.1 162.18 290.34 162.18 289.39V282.66Z" fill="white"/>
<path d="M162.18 266.86C162.18 265.06 163.78 263.61 165.75 263.61H203.22C205.19 263.61 206.79 265.07 206.79 266.86V270.57C206.79 272.37 205.19 273.82 203.22 273.82H165.75C163.78 273.82 162.18 272.36 162.18 270.57V266.86Z" fill="white"/>
<path d="M162.18 320.52C162.18 319.58 163.02 318.81 164.06 318.81H206.31C207.35 318.81 208.19 319.57 208.19 320.52V322.44C208.19 323.38 207.35 324.15 206.31 324.15H164.06C163.02 324.15 162.18 323.39 162.18 322.44V320.52Z" fill="white"/>
<path d="M241.62 316.83C241.62 315.4 242.78 314.24 244.21 314.24H261.16C262.59 314.24 263.75 315.4 263.75 316.83V321.56C263.75 322.99 262.59 324.15 261.16 324.15H244.21C242.78 324.15 241.62 322.99 241.62 321.56V316.83Z" fill="white"/>
<path d="M205.04 309.43H229.38" stroke="white" stroke-width="2" stroke-miterlimit="10" stroke-linecap="round" stroke-linejoin="round"/>
<path d="M253.24 282.29C253.24 282.29 254.66 284.13 254.66 286C254.66 287.87 253.24 289.77 253.24 289.77" stroke="#263238" stroke-width="2" stroke-miterlimit="10" stroke-linecap="round" stroke-linejoin="round"/>
<path d="M250.46 284.04C250.46 284.04 251.21 285.02 251.21 286.01C251.21 287 250.46 288.01 250.46 288.01" stroke="#263238" stroke-width="2" stroke-miterlimit="10" stroke-linecap="round" stroke-linejoin="round"/>
<path d="M256.27 280.84C256.27 280.84 258.24 283.39 258.24 285.99C258.24 288.58 256.27 291.22 256.27 291.22" stroke="#263238" stroke-width="2" stroke-miterlimit="10" stroke-linecap="round" stroke-linejoin="round"/>
<path d="M259.68 279.76C259.68 279.76 262.06 282.85 262.06 285.98C262.06 289.11 259.68 292.3 259.68 292.3" stroke="#263238" stroke-width="2" stroke-miterlimit="10" stroke-linecap="round" stroke-linejoin="round"/>
<path d="M187.01 418.2C187.01 417.22 188.09 416.43 189.43 416.43H236.26C237.6 416.43 238.68 417.22 238.68 418.2V423.04C238.68 424.02 237.6 424.81 236.26 424.81H189.43C188.09 424.81 187.01 424.02 187.01 423.04V418.2Z" stroke="#263238" stroke-width="2" stroke-miterlimit="10" stroke-linecap="round" stroke-linejoin="round"/>
<path d="M193.729 100.01C193.729 99.29 194.53 98.7 195.52 98.7H230.169C231.159 98.7 231.96 99.29 231.96 100.01V103.59C231.96 104.31 231.159 104.9 230.169 104.9H195.52C194.53 104.9 193.729 104.31 193.729 103.59V100.01Z" fill="#FFC5C1"/>
<path d="M118.96 109.97C118.96 100.17 127.52 92.22 138.07 92.22H287.61C298.17 92.22 306.72 100.17 306.72 109.97V422.54C306.72 432.35 298.16 440.29 287.61 440.29H138.07C127.51 440.29 118.96 432.34 118.96 422.54V109.97Z" stroke="#263238" stroke-width="2" stroke-miterlimit="10" stroke-linecap="round" stroke-linejoin="round"/>
<path d="M138.07 406.29C136.75 406.29 136.1 405.66 135.96 405.45V110.06C136.11 109.85 136.76 109.22 138.07 109.22H287.61C288.93 109.22 289.58 109.85 289.72 110.06V405.45C289.57 405.66 288.92 406.29 287.61 406.29H138.07Z" stroke="#263238" stroke-width="2" stroke-miterlimit="10" stroke-linecap="round" stroke-linejoin="round"/>
<path d="M167.5 207.66H185.19L181.61 220H170.28L167.5 207.66Z" stroke="#263238" stroke-width="2" stroke-miterlimit="10" stroke-linecap="round" stroke-linejoin="round"/>
<path d="M170.13 224.34C170.13 223.02 171.04 221.95 172.17 221.95C173.3 221.95 174.21 223.02 174.21 224.34C174.21 225.66 173.3 226.73 172.17 226.73C171.04 226.73 170.13 225.66 170.13 224.34Z" fill="#263238"/>
<path d="M177.87 224.34C177.87 223.02 178.78 221.95 179.91 221.95C181.04 221.95 181.95 223.02 181.95 224.34C181.95 225.66 181.04 226.73 179.91 226.73C178.78 226.73 177.87 225.66 177.87 224.34Z" fill="#263238"/>
<path d="M167.86 209.21L166.61 204.31L161.45 204.27" stroke="#263238" stroke-width="2" stroke-miterlimit="10" stroke-linecap="round" stroke-linejoin="round"/>
<path d="M173.55 207.66V220" stroke="#263238" stroke-width="2" stroke-miterlimit="10" stroke-linecap="round" stroke-linejoin="round"/>
<path d="M179.17 207.66V220" stroke="#263238" stroke-width="2" stroke-miterlimit="10" stroke-linecap="round" stroke-linejoin="round"/>
<path d="M168.23 213.83H184.02" stroke="#263238" stroke-width="2" stroke-miterlimit="10" stroke-linecap="round" stroke-linejoin="round"/>
<path d="M170.71 162.43L172.15 154.84H174.34L171.97 165.5H169.76L168.02 158.37L166.28 165.5H164.07L161.7 154.84H163.89L165.33 162.41L167.09 154.84H168.95L170.71 162.43Z" fill="white"/>
<path d="M181.83 163.3H177.98L177.25 165.5H174.91L178.88 154.84H180.92L184.91 165.5H182.57L181.83 163.3ZM178.57 161.52H181.24L179.9 157.53L178.57 161.52Z" fill="white"/>
<path d="M188.7 163.74H193.37V165.51H186.51V154.85H188.71V163.74H188.7Z" fill="white"/>
<path d="M197.42 163.74H202.09V165.51H195.23V154.85H197.43V163.74H197.42Z" fill="white"/>
<path d="M210.36 160.88H206.14V163.74H211.09V165.51H203.94V154.85H211.07V156.63H206.13V159.17H210.35V160.88H210.36Z" fill="white"/>
<path d="M221.16 156.62H217.89V165.5H215.69V156.62H212.47V154.84H221.16V156.62Z" fill="white"/>
<path d="M202.16 375.29V379.05H199.96V368.39H204.12C204.92 368.39 205.62 368.54 206.23 368.83C206.84 369.12 207.31 369.54 207.63 370.08C207.96 370.62 208.12 371.23 208.12 371.92C208.12 372.96 207.76 373.79 207.05 374.39C206.33 374.99 205.34 375.29 204.08 375.29H202.16ZM202.16 373.51H204.12C204.7 373.51 205.14 373.37 205.45 373.1C205.76 372.83 205.91 372.44 205.91 371.93C205.91 371.41 205.76 370.98 205.45 370.66C205.14 370.34 204.72 370.17 204.18 370.16H202.17V373.51H202.16Z" fill="white"/>
<path d="M214.95 376.85H211.1L210.37 379.05H208.03L212 368.39H214.04L218.03 379.05H215.69L214.95 376.85ZM211.69 375.07H214.36L213.02 371.08L211.69 375.07Z" fill="white"/>
<path d="M222.2 373.19L224.42 368.39H226.82L223.32 375.19V379.06H221.09V375.19L217.59 368.39H220L222.2 373.19Z" fill="white"/>
<path d="M164.44 305.31H163V299.76L161.28 300.29V299.12L164.28 298.04H164.43V305.31H164.44Z" fill="#263238"/>
<path d="M172.171 305.31H167.201V304.32L169.551 301.82C169.871 301.47 170.111 301.16 170.261 300.9C170.411 300.64 170.491 300.39 170.491 300.15C170.491 299.83 170.411 299.57 170.251 299.39C170.091 299.21 169.851 299.11 169.551 299.11C169.221 299.11 168.971 299.22 168.781 299.45C168.591 299.67 168.501 299.97 168.501 300.33H167.061C167.061 299.89 167.161 299.49 167.381 299.12C167.591 298.76 167.891 298.47 168.271 298.26C168.661 298.05 169.091 297.95 169.581 297.95C170.331 297.95 170.911 298.13 171.321 298.49C171.731 298.85 171.941 299.35 171.941 300.01C171.941 300.37 171.851 300.73 171.661 301.1C171.471 301.47 171.161 301.91 170.701 302.4L169.051 304.14H172.171V305.31Z" fill="#263238"/>
<path d="M174.92 301.04H175.69C176.06 301.04 176.33 300.95 176.5 300.77C176.68 300.59 176.76 300.35 176.76 300.04C176.76 299.75 176.67 299.52 176.5 299.36C176.33 299.2 176.09 299.12 175.78 299.12C175.5 299.12 175.27 299.2 175.09 299.35C174.9 299.5 174.81 299.7 174.81 299.94H173.37C173.37 299.56 173.47 299.22 173.68 298.92C173.88 298.62 174.17 298.38 174.54 298.22C174.91 298.05 175.31 297.97 175.75 297.97C176.52 297.97 177.12 298.15 177.55 298.52C177.98 298.89 178.2 299.39 178.2 300.04C178.2 300.37 178.1 300.68 177.9 300.96C177.7 301.24 177.43 301.45 177.1 301.6C177.51 301.75 177.81 301.97 178.01 302.26C178.21 302.55 178.31 302.9 178.31 303.3C178.31 303.94 178.08 304.46 177.61 304.85C177.14 305.24 176.52 305.43 175.75 305.43C175.03 305.43 174.43 305.24 173.98 304.86C173.52 304.48 173.29 303.97 173.29 303.35H174.73C174.73 303.62 174.83 303.84 175.04 304.02C175.24 304.19 175.5 304.28 175.79 304.28C176.13 304.28 176.4 304.19 176.59 304.01C176.78 303.83 176.88 303.59 176.88 303.29C176.88 302.57 176.48 302.2 175.69 302.2H174.93V301.04H174.92Z" fill="#263238"/>
<path d="M183.97 302.58H184.79V303.74H183.97V305.31H182.53V303.74H179.56L179.5 302.83L182.52 298.06H183.97V302.58ZM180.93 302.58H182.53V300.02L182.44 300.18L180.93 302.58Z" fill="#263238"/>
<path d="M191.03 301.53L191.94 299.92H193.48L191.95 302.56L193.55 305.31H192L191.04 303.62L190.08 305.31H188.53L190.13 302.56L188.6 299.92H190.14L191.03 301.53Z" fill="#263238"/>
<path d="M196.631 301.53L197.541 299.92H199.081L197.551 302.56L199.151 305.31H197.611L196.651 303.62L195.691 305.31H194.141L195.741 302.56L194.211 299.92H195.751L196.631 301.53Z" fill="#263238"/>
<path d="M202.22 301.53L203.13 299.92H204.67L203.14 302.56L204.74 305.31H203.2L202.24 303.62L201.28 305.31H199.73L201.33 302.56L199.8 299.92H201.34L202.22 301.53Z" fill="#263238"/>
<path d="M207.82 301.53L208.73 299.92H210.27L208.74 302.56L210.34 305.31H208.8L207.84 303.62L206.88 305.31H205.33L206.93 302.56L205.4 299.92H206.94L207.82 301.53Z" fill="#263238"/>
<path d="M216.36 301.53L217.27 299.92H218.81L217.28 302.56L218.88 305.31H217.34L216.38 303.62L215.42 305.31H213.87L215.47 302.56L213.94 299.92H215.48L216.36 301.53Z" fill="#263238"/>
<path d="M221.961 301.53L222.871 299.92H224.411L222.881 302.56L224.481 305.31H222.941L221.981 303.62L221.021 305.31H219.471L221.071 302.56L219.541 299.92H221.081L221.961 301.53Z" fill="#263238"/>
<path d="M227.551 301.53L228.461 299.92H230.001L228.471 302.56L230.071 305.31H228.531L227.571 303.62L226.611 305.31H225.061L226.661 302.56L225.131 299.92H226.671L227.551 301.53Z" fill="#263238"/>
<path d="M233.15 301.53L234.06 299.92H235.6L234.07 302.56L235.67 305.31H234.13L233.17 303.62L232.21 305.31H230.66L232.26 302.56L230.73 299.92H232.27L233.15 301.53Z" fill="#263238"/>
<path d="M239.791 301.74L240.211 298.06H244.271V299.26H241.391L241.211 300.82C241.551 300.64 241.921 300.55 242.301 300.55C242.991 300.55 243.531 300.76 243.921 301.19C244.311 301.62 244.511 302.22 244.511 302.99C244.511 303.46 244.411 303.88 244.211 304.25C244.011 304.62 243.731 304.91 243.361 305.11C242.991 305.31 242.561 305.42 242.061 305.42C241.621 305.42 241.221 305.33 240.841 305.15C240.461 304.97 240.171 304.72 239.951 304.4C239.731 304.08 239.621 303.71 239.601 303.3H241.021C241.051 303.6 241.151 303.84 241.341 304.01C241.521 304.18 241.761 304.26 242.051 304.26C242.381 304.26 242.631 304.14 242.801 303.91C242.981 303.68 243.061 303.34 243.061 302.92C243.061 302.51 242.961 302.19 242.761 301.97C242.561 301.75 242.271 301.64 241.901 301.64C241.561 301.64 241.281 301.73 241.071 301.91L240.931 302.04L239.791 301.74Z" fill="#263238"/>
<path d="M249.74 297.98V299.16H249.6C248.95 299.17 248.43 299.34 248.03 299.67C247.63 300 247.4 300.46 247.32 301.04C247.7 300.65 248.19 300.45 248.78 300.45C249.41 300.45 249.91 300.68 250.28 301.13C250.65 301.58 250.84 302.17 250.84 302.91C250.84 303.38 250.74 303.81 250.53 304.19C250.33 304.57 250.04 304.87 249.66 305.08C249.29 305.29 248.86 305.4 248.39 305.4C247.63 305.4 247.01 305.13 246.54 304.6C246.07 304.07 245.84 303.36 245.84 302.47V301.95C245.84 301.16 245.99 300.47 246.29 299.87C246.59 299.27 247.01 298.8 247.57 298.47C248.13 298.14 248.77 297.97 249.5 297.97H249.74V297.98ZM248.33 301.62C248.1 301.62 247.89 301.68 247.7 301.8C247.51 301.92 247.37 302.08 247.28 302.28V302.72C247.28 303.2 247.37 303.58 247.56 303.84C247.75 304.11 248.01 304.25 248.36 304.25C248.67 304.25 248.92 304.13 249.11 303.88C249.3 303.64 249.4 303.32 249.4 302.93C249.4 302.54 249.3 302.22 249.11 301.98C248.92 301.74 248.66 301.62 248.33 301.62Z" fill="#263238"/>
<path d="M257.02 298.86L254.22 305.31H252.7L255.51 299.22H251.91V298.06H257.03V298.86H257.02Z" fill="#263238"/>
<path d="M263.07 299.98C263.07 300.33 262.98 300.64 262.81 300.92C262.63 301.19 262.39 301.41 262.08 301.57C262.43 301.74 262.71 301.97 262.92 302.27C263.13 302.57 263.23 302.92 263.23 303.32C263.23 303.96 263.01 304.47 262.57 304.85C262.13 305.22 261.54 305.41 260.78 305.41C260.03 305.41 259.43 305.22 258.99 304.85C258.55 304.47 258.33 303.97 258.33 303.33C258.33 302.93 258.43 302.58 258.64 302.28C258.85 301.98 259.12 301.75 259.47 301.58C259.16 301.42 258.92 301.2 258.75 300.93C258.58 300.66 258.49 300.35 258.49 299.99C258.49 299.37 258.7 298.88 259.11 298.51C259.52 298.14 260.08 297.96 260.79 297.96C261.49 297.96 262.05 298.14 262.47 298.51C262.87 298.87 263.07 299.36 263.07 299.98ZM261.78 303.21C261.78 302.89 261.69 302.64 261.51 302.45C261.33 302.26 261.08 302.17 260.77 302.17C260.47 302.17 260.22 302.26 260.04 302.45C259.86 302.64 259.77 302.89 259.77 303.21C259.77 303.52 259.86 303.77 260.04 303.96C260.22 304.15 260.47 304.24 260.79 304.24C261.1 304.24 261.35 304.15 261.52 303.97C261.7 303.79 261.78 303.54 261.78 303.21ZM261.63 300.05C261.63 299.77 261.56 299.54 261.41 299.37C261.26 299.2 261.05 299.11 260.78 299.11C260.51 299.11 260.3 299.19 260.15 299.36C260 299.53 259.93 299.76 259.93 300.05C259.93 300.34 260 300.57 260.15 300.75C260.3 300.93 260.51 301.01 260.78 301.01C261.05 301.01 261.26 300.92 261.41 300.75C261.56 300.57 261.63 300.34 261.63 300.05Z" fill="#263238"/>
<path d="M112.9 31.33C112.52 31.79 110.72 34.2 109.8 35.21C105.15 40.32 97.0998 46.66 95.1398 47.92C90.1598 51.11 85.0398 53.5 80.0398 55.2C78.2898 55.79 74.3297 56.85 73.9497 56.91C72.5697 57.13 72.5897 58.03 72.5897 58.03C72.5797 58.15 72.1498 65.25 72.0298 67.85C71.6398 76.24 71.4398 84.69 71.4998 92.58C71.6398 111.48 73.2298 123.75 77.0298 126.99C79.4598 129.07 83.5098 131.69 88.8498 134.72C90.4698 135.64 106.49 144.47 112.99 147.19C113.29 147.32 113.47 147.49 114.16 147.18C120.95 144.04 136.95 135.38 138.56 134.46C143.9 131.43 147.95 128.83 150.38 126.75C154.17 123.5 155.76 111.24 155.91 92.34C155.97 84.45 155.77 76 155.38 67.61C155.26 65.01 154.85 58.12 154.84 58C154.84 58 154.82 57.41 153.9 57.26C153.2 57.14 149.15 56.06 147.4 55.47C142.4 53.77 137.25 51.38 132.27 48.19C130.31 46.93 122.47 41.14 117.88 35.62C117.01 34.57 114.79 31.86 114.4 31.34C113.98 30.82 113.32 30.81 112.9 31.33Z" fill="#E91706"/>
<path d="M113.039 42.43C112.729 42.8 111.259 44.78 110.499 45.6C106.699 49.77 100.119 54.96 98.5194 55.99C94.4494 58.59 90.2694 60.55 86.1794 61.94C84.7494 62.42 81.5094 63.29 81.1994 63.34C80.0694 63.52 80.0894 64.26 80.0894 64.26C80.0794 64.36 79.7294 70.16 79.6294 72.29C79.3094 79.15 79.1494 86.05 79.1994 92.5C79.3194 107.95 80.6194 117.97 83.7194 120.62C85.6994 122.32 89.0194 124.46 93.3794 126.94C94.6994 127.69 107.799 134.91 113.109 137.13C113.349 137.23 113.499 137.38 114.059 137.12C119.609 134.56 132.679 127.47 133.999 126.72C138.359 124.24 141.679 122.12 143.659 120.42C146.759 117.77 148.059 107.75 148.179 92.3C148.229 85.85 148.059 78.95 147.749 72.09C147.649 69.97 147.319 64.34 147.309 64.24C147.309 64.24 147.289 63.76 146.549 63.63C145.979 63.53 142.669 62.65 141.239 62.16C137.149 60.77 132.939 58.82 128.869 56.21C127.269 55.18 120.859 50.45 117.109 45.94C116.399 45.08 114.589 42.86 114.259 42.44C113.929 42.01 113.389 42.01 113.039 42.43Z" stroke="white" stroke-width="2" stroke-miterlimit="10" stroke-linecap="round" stroke-linejoin="round"/>
<path d="M103.68 91.96L111.79 101.94L123.68 83.49" stroke="white" stroke-width="2" stroke-miterlimit="10" stroke-linecap="round" stroke-linejoin="round"/>
<path d="M94.29 92.7199C94.29 82.0599 102.98 73.4199 113.69 73.4199C124.41 73.4199 133.09 82.0599 133.09 92.7199C133.09 103.38 124.4 112.02 113.69 112.02C102.98 112.02 94.29 103.38 94.29 92.7199Z" stroke="white" stroke-width="2" stroke-miterlimit="10" stroke-linecap="round" stroke-linejoin="round"/>
<path d="M391.32 86.98C383.51 84.89 376.79 79.2 373.69 71.07C368.57 57.62 375.32 42.56 388.77 37.44C402.22 32.32 417.28 39.07 422.4 52.52C427.52 65.97 420.77 81.03 407.32 86.15C405.45 86.86 403.56 87.34 401.66 87.61" stroke="#263238" stroke-width="2" stroke-miterlimit="10" stroke-linecap="round" stroke-linejoin="round"/>
<path d="M391.28 86.98C391.28 86.98 391.38 93.23 388.61 96.99C384.21 102.95 381.77 103.95 381.77 103.95C381.77 103.95 390.88 101.72 395.5 97.78C400.22 93.76 401.57 87.63 401.57 87.63" stroke="#263238" stroke-width="2" stroke-miterlimit="10" stroke-linecap="round" stroke-linejoin="round"/>
<path d="M412.5 53.57L394.01 77.4L383.59 64.5L387.15 59.55L393.92 71.9L408.37 47.15L412.5 53.57Z" fill="#E91706"/>
<path d="M378.97 239C378.97 239 421.44 298.87 416.34 313.64C411.24 328.41 340 403.64 340 403.64L318.25 346.68L372.28 310.96L359.79 239.91L378.97 239Z" fill="#263238"/>
<path d="M327.031 244.01C327.031 244.01 316.181 256.1 318.611 270.66C320.511 282.07 332.341 287.78 332.341 287.78L346.861 435.16L399.931 426.51L367.791 239L327.031 244.01Z" fill="#E91706"/>
<path d="M364.69 254.88L387.29 422.19" stroke="#263238" stroke-width="2" stroke-miterlimit="10" stroke-linecap="round" stroke-linejoin="round"/>
<path d="M358.31 249.46C358.31 249.46 366.02 251.77 374.36 249.46C384.93 246.53 388.53 241.37 388.53 241.37C388.53 241.37 405.87 264.13 425 251.82C433.11 246.6 438.47 224.36 431.61 214.09C424.81 203.9 405 203.02 405 203.02C405 203.02 404.49 187.8 384.57 176.34C364.65 164.88 334.22 168.38 315.42 185.44C296.62 202.5 290.08 226.08 294.96 244.8C299.69 262.93 318.25 276.1 337.88 268.21C350.87 262.98 358.31 249.46 358.31 249.46Z" fill="#FFC5C1"/>
<path opacity="0.2965" d="M353.81 171.77L358.86 191.34L373.53 176.84C373.54 176.84 354.94 171.95 353.81 171.77ZM328.35 176.81C323.7 179.16 319.27 181.94 315.41 185.43C315.05 185.76 314.76 186.13 314.41 186.46L334.03 186.58L328.35 176.81ZM390.23 180.13L386.54 186.47L397.13 186.53C395.29 184.41 393.04 182.25 390.23 180.13ZM340.95 194.66L330.67 212.38L351.29 212.47L340.95 194.66ZM383.82 197.23L364.02 202.49L378.56 217.16L383.82 197.23ZM305.54 196.69C301.94 201.71 299.14 206.99 297.16 212.38L314.72 212.47L305.54 196.69ZM408.98 203.47L403.82 212.38L424.44 212.47L420.91 206.41C416.51 204.69 412.09 203.89 408.98 203.47ZM317.38 224.67L322.64 244.47L337.31 229.93L317.38 224.67ZM360.23 222.03L349.98 239.75L370.6 239.84L360.23 222.03ZM396.82 222.03L386.54 239.75L407.16 239.84L396.82 222.03ZM433.38 222.03L423.13 239.75L432.6 239.78C434.2 234.87 435.01 229.28 434.63 224.19L433.38 222.03ZM293.54 233.16C293.58 235.43 293.74 237.66 294.07 239.85H297.45L293.54 233.16ZM304.35 247.91L299.91 255.57C302.61 259.65 306.06 263.13 310.1 265.7L314.72 265.73L304.35 247.91ZM340.95 247.91L330.67 265.63L342.83 265.69C345.06 264.32 346.83 262.72 348.61 261.1L340.95 247.91ZM414.07 247.91L409.91 255.07C412.53 255.48 415.24 255.53 418.1 254.82L414.07 247.91Z" fill="white"/>
<path d="M332.69 194.5C332.69 194.5 333.52 201.68 332.33 208.5C330.69 217.98 325.29 232.29 325.29 232.29C325.29 232.29 332.33 217.3 340 213.65C351.87 208 367.68 212.52 365.51 229.76C364.08 241.12 360.42 246.9 360.42 246.9" stroke="white" stroke-width="2" stroke-miterlimit="10" stroke-linecap="round" stroke-linejoin="round"/>
<path d="M368.75 152.65C368.21 152.2 367.42 152.26 366.98 152.81C366.54 153.35 366.62 154.17 367.15 154.62C367.69 155.06 368.48 154.97 368.92 154.42C369.36 153.87 369.28 153.09 368.75 152.65Z" fill="#263238"/>
<path d="M360.77 150.11C360.23 149.66 359.44 149.72 359 150.27C358.56 150.81 358.64 151.63 359.18 152.07C359.72 152.52 360.5 152.42 360.95 151.88C361.4 151.34 361.3 150.55 360.77 150.11Z" fill="#263238"/>
<path d="M368.8 158.63C374.19 152 373.23 142.21 366.67 136.76C360.11 131.32 350.42 132.28 345.03 138.91C339.64 145.54 340.6 155.33 347.16 160.78C353.72 166.23 363.41 165.26 368.8 158.63Z" stroke="#263238" stroke-width="2" stroke-miterlimit="10" stroke-linecap="round" stroke-linejoin="round"/>
<path d="M372.201 147.22C372.201 147.22 370.191 146.85 367.361 143.5C365.401 141.19 364.831 138.26 364.831 138.26C364.831 138.26 359.771 144.26 353.731 146.57C347.941 148.77 341.141 147.07 341.141 147.07C341.141 147.07 343.601 133.23 359.491 133.23C370.991 133.24 372.201 147.22 372.201 147.22Z" fill="#263238"/>
<path d="M352.691 111.71C354.691 108.47 353.691 104.19 350.481 102.17C347.261 100.15 343.041 101.14 341.041 104.38C339.051 107.62 340.041 111.9 343.251 113.92C346.471 115.94 350.691 114.95 352.691 111.71Z" fill="#263238"/>
<path d="M363.09 100.7C364.59 98.26 363.84 95.05 361.43 93.53C359.01 92.01 355.84 92.75 354.34 95.19C352.84 97.63 353.59 100.84 356 102.36C358.42 103.88 361.59 103.13 363.09 100.7Z" fill="#263238"/>
<path d="M348.6 131.2C351.16 127.04 349.89 121.56 345.76 118.97C341.63 116.37 336.21 117.64 333.65 121.81C331.09 125.97 332.36 131.45 336.49 134.04C340.63 136.64 346.05 135.37 348.6 131.2Z" fill="#263238"/>
<path d="M353.72 152.01C353.72 151.12 354.44 150.4 355.32 150.4C356.2 150.4 356.92 151.12 356.92 152.01C356.92 152.9 356.21 153.62 355.32 153.62C354.43 153.62 353.72 152.9 353.72 152.01Z" fill="#E91706"/>
<path d="M357.87 155.56C357.87 155.56 357.68 157 358.52 158.26C359.45 159.65 360.81 159.91 360.81 159.91" stroke="#263238" stroke-width="2" stroke-miterlimit="10" stroke-linecap="round" stroke-linejoin="round"/>
<path d="M363.74 152.37L363.76 158.36L361.23 156.75" stroke="#263238" stroke-width="2" stroke-miterlimit="10" stroke-linecap="round" stroke-linejoin="round"/>
<path d="M389.06 191.36C389.74 188.71 392.34 187.12 394.85 187.81L411.67 188.51C414.19 189.2 415.67 191.9 414.99 194.55L405.97 229.52C405.29 232.17 402.69 233.76 400.18 233.07L383.36 232.37C380.84 231.68 379.36 228.98 380.04 226.33L389.06 191.36Z" fill="#E91706"/>
<path d="M426.13 213.03C424.25 207.11 420.09 202.89 411.07 203.38C397.4 204.12 387.98 216.3 393.83 219.8C395.33 220.7 395.47 217.31 399.3 214.96C402.8 212.82 407.11 211.89 407.11 211.89C407.11 211.89 399.17 213.86 396.44 217.41C391.98 223.22 396.84 226.11 396.84 226.11C396.84 226.11 399.4 222.97 402.04 221C404.68 219.03 409.24 217.51 409.24 217.51C409.24 217.51 403.73 219.63 401 221.95C398.23 224.3 396.45 226.31 398.75 228.16C401.92 230.71 412.17 224.63 412.17 224.63C412.17 224.63 415.98 227.38 418.96 226.92C425.42 225.95 428.01 218.95 426.13 213.03Z" stroke="#263238" stroke-width="2" stroke-miterlimit="10" stroke-linecap="round" stroke-linejoin="round"/>
<path d="M346.86 213.03C346.86 213.03 347.63 201.02 358.01 194.28C362.68 191.25 367.64 190.65 374.09 191.33C380.72 192.03 387.49 196.55 385.8 200.06C384.1 203.57 379.21 201.22 376.27 200.02C372.75 198.57 370.68 198.56 370.68 198.56C370.68 198.56 373.15 198.71 376.37 200.07C376.37 200.07 379.31 201.01 380.23 203.85C381.41 207.5 377.14 209.5 376.28 208.47C375.59 207.65 374.18 206.79 372.51 206.06C370.22 205.06 367.59 204.66 367.59 204.66C367.59 204.66 376.8 206.02 376.85 210.42C376.92 215.99 372.69 216.93 370.05 216.05C367.19 215.09 364.27 212.94 365.28 211.36C366.72 209.11 371.01 211.2 371.01 211.2" stroke="#263238" stroke-width="2" stroke-miterlimit="10" stroke-linecap="round" stroke-linejoin="round"/>
<path d="M365.541 213.65C365.541 213.65 363.751 217.42 360.811 219.15C358.871 220.29 355.311 220.96 355.311 220.96" stroke="#263238" stroke-width="2" stroke-miterlimit="10" stroke-linecap="round" stroke-linejoin="round"/>
<path d="M323.97 350.81L299.68 362.22C299.68 362.22 315.22 407.5 319.33 411.09C322.1 413.51 323.36 404.85 324.4 396.55C325.39 388.66 324.91 380.07 324.91 380.07L328.44 378.27" stroke="#263238" stroke-width="2" stroke-miterlimit="10" stroke-linecap="round" stroke-linejoin="round"/>
<path d="M319.09 384.38L329 389.24" stroke="#E91706" stroke-width="2" stroke-miterlimit="10" stroke-linecap="round" stroke-linejoin="round"/>
<path d="M319.02 388.94L328.93 393.8" stroke="#E91706" stroke-width="2" stroke-miterlimit="10" stroke-linecap="round" stroke-linejoin="round"/>
<path d="M357.85 435.17L358.01 452.59C358.01 452.59 406.84 456.46 411.78 454.17C415.11 452.62 407.71 447.95 400.55 443.63C393.74 439.52 385.7 436.46 385.7 436.46L385.49 432.5" stroke="#263238" stroke-width="2" stroke-miterlimit="10" stroke-linecap="round" stroke-linejoin="round"/>
<path d="M387.279 443.53L395.749 436.45" stroke="#E91706" stroke-width="2" stroke-miterlimit="10" stroke-linecap="round" stroke-linejoin="round"/>
<path d="M391.42 445.45L399.89 438.37" stroke="#E91706" stroke-width="2" stroke-miterlimit="10" stroke-linecap="round" stroke-linejoin="round"/>
</svg>
