<svg width="500" height="500" viewBox="0 0 500 500" fill="none" xmlns="http://www.w3.org/2000/svg">
<path d="M301.949 250.07H164.809C162.169 250.07 160.029 247.93 160.029 245.29V41.5801C160.029 38.9401 162.169 36.8 164.809 36.8H301.949C304.589 36.8 306.729 38.9401 306.729 41.5801V245.29C306.729 247.93 304.589 250.07 301.949 250.07Z" fill="white"/>
<path d="M301.87 250.58H164.88C161.92 250.58 159.52 248.18 159.52 245.22V41.66C159.52 38.7 161.92 36.3 164.88 36.3H301.87C304.83 36.3 307.23 38.7 307.23 41.66V245.22C307.23 248.17 304.83 250.58 301.87 250.58ZM164.88 37.32C162.48 37.32 160.54 39.27 160.54 41.66V245.22C160.54 247.62 162.49 249.56 164.88 249.56H301.87C304.26 249.56 306.21 247.61 306.21 245.22V41.66C306.21 39.26 304.26 37.32 301.87 37.32H164.88Z" fill="#E0E0E0"/>
<path d="M296.37 226.81H174.31V231.79H296.37V226.81Z" fill="#E0E0E0"/>
<path d="M296.37 234.25H174.31V239.23H296.37V234.25Z" fill="#E0E0E0"/>
<path d="M296.37 121.96H174.31V210.29H296.37V121.96Z" fill="#F5F5F5"/>
<path d="M295.739 137.27C295.739 137.42 268.469 137.53 234.829 137.53C201.179 137.53 173.909 137.41 173.909 137.27C173.909 137.12 201.179 137.01 234.829 137.01C268.469 137.01 295.739 137.13 295.739 137.27Z" fill="#263238"/>
<path d="M190.369 210.28C190.219 210.28 190.109 190.63 190.109 166.4C190.109 142.16 190.229 122.52 190.369 122.52C190.519 122.52 190.629 142.16 190.629 166.4C190.639 190.64 190.519 210.28 190.369 210.28Z" fill="#263238"/>
<path d="M245.269 211.3C245.119 211.3 245.009 191.42 245.009 166.91C245.009 142.39 245.129 122.52 245.269 122.52C245.419 122.52 245.529 142.39 245.529 166.91C245.539 191.43 245.419 211.3 245.269 211.3Z" fill="#263238"/>
<path d="M272.719 211.3C272.569 211.3 272.459 191.42 272.459 166.91C272.459 142.39 272.579 122.52 272.719 122.52C272.869 122.52 272.979 142.39 272.979 166.91C272.989 191.43 272.869 211.3 272.719 211.3Z" fill="#263238"/>
<path d="M185.679 127.72H178.569V132.94H185.679V127.72Z" fill="#E0E0E0"/>
<path d="M185.679 146.35H178.569V151.57H185.679V146.35Z" fill="#E0E0E0"/>
<path d="M185.679 158.15H178.569V163.37H185.679V158.15Z" fill="#E0E0E0"/>
<path d="M185.679 168.48H178.569V173.7H185.679V168.48Z" fill="#E0E0E0"/>
<path d="M266.459 127.72H251.369V132.94H266.459V127.72Z" fill="#E0E0E0"/>
<path d="M264.149 142.2H253.739V147.42H264.149V142.2Z" fill="#E0E0E0"/>
<path d="M264.149 158.04H253.739V163.26H264.149V158.04Z" fill="#E0E0E0"/>
<path d="M290.489 158.04H280.079V163.26H290.489V158.04Z" fill="#E0E0E0"/>
<path d="M264.149 168.57H253.739V173.79H264.149V168.57Z" fill="#E0E0E0"/>
<path d="M290.409 168.08H279.999V173.3H290.409V168.08Z" fill="#E0E0E0"/>
<path d="M290.409 142.55H279.999V147.77H290.409V142.55Z" fill="#E0E0E0"/>
<path d="M290.409 127.72H278.359V132.94H290.409V127.72Z" fill="#E0E0E0"/>
<path d="M236.719 127.72H197.259V132.94H236.719V127.72Z" fill="#E0E0E0"/>
<path d="M220.719 145.24H197.259V150.46H220.719V145.24Z" fill="#E0E0E0"/>
<path d="M236.719 157.66H197.259V162.88H236.719V157.66Z" fill="#E0E0E0"/>
<path d="M218.209 168.08H197.259V173.3H218.209V168.08Z" fill="#E0E0E0"/>
<path d="M296.359 210.28H272.719V222.3H296.359V210.28Z" fill="#E0E0E0"/>
<path d="M290.48 59.2301H238V64.2101H290.48V59.2301Z" fill="#E0E0E0"/>
<path d="M190.199 74.74H177.369V79.72H190.199V74.74Z" fill="#E0E0E0"/>
<path d="M211.25 83.0801H177V88.0601H211.25V83.0801Z" fill="#E0E0E0"/>
<path d="M279.13 79.7129H291.96V74.7329H279.13V79.7129Z" fill="#E0E0E0"/>
<path d="M258.085 88.0542H292.335V83.0742H258.085V88.0542Z" fill="#E0E0E0"/>
<path d="M211.25 98.4701H177V103.45H211.25V98.4701Z" fill="#E0E0E0"/>
<path d="M264.43 107.12H177V112.1H264.43V107.12Z" fill="#E0E0E0"/>
<path d="M178.199 56.7201H180.529V64.9501H178.199V56.7201Z" fill="#E0E0E0"/>
<path d="M190.01 56.7201V64.9501H188.09L184.46 60.5701V64.9501H182.18V56.7201H184.1L187.73 61.1001V56.7201H190.01Z" fill="#E0E0E0"/>
<path d="M199.979 56.7201L196.449 64.9501H194.159L190.649 56.7201H193.169L195.399 62.0801L197.679 56.7201H199.979Z" fill="#E0E0E0"/>
<path d="M199.93 60.8301C199.93 58.3601 201.87 56.55 204.5 56.55C207.13 56.55 209.07 58.3601 209.07 60.8301C209.07 63.3001 207.13 65.1101 204.5 65.1101C201.87 65.1101 199.93 63.3001 199.93 60.8301ZM206.73 60.8301C206.73 59.4101 205.75 58.48 204.51 58.48C203.26 58.48 202.29 59.4101 202.29 60.8301C202.29 62.2501 203.27 63.18 204.51 63.18C205.75 63.18 206.73 62.2501 206.73 60.8301Z" fill="#E0E0E0"/>
<path d="M210.299 56.7201H212.629V64.9501H210.299V56.7201Z" fill="#E0E0E0"/>
<path d="M213.869 60.8301C213.869 58.3301 215.789 56.55 218.389 56.55C219.909 56.55 221.129 57.1 221.929 58.1L220.449 59.44C219.929 58.82 219.299 58.48 218.509 58.48C217.159 58.48 216.219 59.4201 216.219 60.8301C216.219 62.2401 217.159 63.18 218.509 63.18C219.299 63.18 219.929 62.8401 220.449 62.2201L221.929 63.5601C221.129 64.5601 219.909 65.1101 218.389 65.1101C215.779 65.1101 213.869 63.3301 213.869 60.8301Z" fill="#E0E0E0"/>
<path d="M229.569 63.1401V64.9401H222.969V56.7101H229.419V58.5101H225.269V59.9001H228.919V61.6401H225.269V63.1401H229.569Z" fill="#E0E0E0"/>
<path d="M169.9 44.4501C169.9 45.6801 168.9 46.6901 167.66 46.6901C166.43 46.6901 165.42 45.6901 165.42 44.4501C165.42 43.2201 166.42 42.2101 167.66 42.2101C168.9 42.2201 169.9 43.2201 169.9 44.4501Z" fill="#E0E0E0"/>
<path d="M175.66 44.4501C175.66 45.6801 174.66 46.6901 173.42 46.6901C172.19 46.6901 171.18 45.6901 171.18 44.4501C171.18 43.2201 172.18 42.2101 173.42 42.2101C174.66 42.2201 175.66 43.2201 175.66 44.4501Z" fill="#E0E0E0"/>
<path d="M181.41 44.4501C181.41 45.6801 180.41 46.6901 179.17 46.6901C177.94 46.6901 176.93 45.6901 176.93 44.4501C176.93 43.2201 177.93 42.2101 179.17 42.2101C180.41 42.2201 181.41 43.2201 181.41 44.4501Z" fill="#E0E0E0"/>
<path d="M451.19 399.46H314.05C311.41 399.46 309.27 397.32 309.27 394.68V190.98C309.27 188.34 311.41 186.2 314.05 186.2H451.19C453.83 186.2 455.97 188.34 455.97 190.98V394.69C455.96 397.33 453.83 399.46 451.19 399.46Z" fill="white"/>
<path d="M451.11 399.97H314.12C311.16 399.97 308.76 397.57 308.76 394.61V191.06C308.76 188.1 311.16 185.7 314.12 185.7H451.11C454.06 185.7 456.47 188.1 456.47 191.06V394.62C456.47 397.57 454.07 399.97 451.11 399.97ZM314.12 186.71C311.72 186.71 309.78 188.66 309.78 191.05V394.61C309.78 397.01 311.73 398.95 314.12 398.95H451.11C453.5 398.95 455.45 397 455.45 394.61V191.06C455.45 188.66 453.5 186.72 451.11 186.72H314.12V186.71Z" fill="#E0E0E0"/>
<path d="M445.61 376.21H323.55V381.19H445.61V376.21Z" fill="#E0E0E0"/>
<path d="M445.61 383.65H323.55V388.63H445.61V383.65Z" fill="#E0E0E0"/>
<path d="M445.61 271.35H323.55V359.68H445.61V271.35Z" fill="#F5F5F5"/>
<path d="M444.979 286.67C444.979 286.82 417.709 286.93 384.069 286.93C350.419 286.93 323.149 286.81 323.149 286.67C323.149 286.52 350.419 286.41 384.069 286.41C417.709 286.41 444.979 286.52 444.979 286.67Z" fill="#E0E0E0"/>
<path d="M339.61 359.68C339.46 359.68 339.35 340.03 339.35 315.8C339.35 291.56 339.47 271.92 339.61 271.92C339.76 271.92 339.87 291.56 339.87 315.8C339.88 340.03 339.76 359.68 339.61 359.68Z" fill="#E0E0E0"/>
<path d="M394.509 360.7C394.359 360.7 394.249 340.82 394.249 316.31C394.249 291.79 394.369 271.92 394.509 271.92C394.659 271.92 394.769 291.79 394.769 316.31C394.779 340.82 394.659 360.7 394.509 360.7Z" fill="#E0E0E0"/>
<path d="M421.959 360.7C421.809 360.7 421.699 340.82 421.699 316.31C421.699 291.79 421.819 271.92 421.959 271.92C422.109 271.92 422.219 291.79 422.219 316.31C422.229 340.82 422.109 360.7 421.959 360.7Z" fill="#E0E0E0"/>
<path d="M334.92 277.12H327.81V282.34H334.92V277.12Z" fill="#E0E0E0"/>
<path d="M334.92 295.74H327.81V300.96H334.92V295.74Z" fill="#E0E0E0"/>
<path d="M334.92 307.55H327.81V312.77H334.92V307.55Z" fill="#E0E0E0"/>
<path d="M334.92 317.88H327.81V323.1H334.92V317.88Z" fill="#E0E0E0"/>
<path d="M415.699 277.12H400.609V282.34H415.699V277.12Z" fill="#E0E0E0"/>
<path d="M413.389 291.6H402.979V296.82H413.389V291.6Z" fill="#E0E0E0"/>
<path d="M413.389 307.44H402.979V312.66H413.389V307.44Z" fill="#E0E0E0"/>
<path d="M439.729 307.44H429.319V312.66H439.729V307.44Z" fill="#E0E0E0"/>
<path d="M413.389 317.97H402.979V323.19H413.389V317.97Z" fill="#E0E0E0"/>
<path d="M439.649 317.47H429.239V322.69H439.649V317.47Z" fill="#E0E0E0"/>
<path d="M439.649 291.94H429.239V297.16H439.649V291.94Z" fill="#E0E0E0"/>
<path d="M439.65 277.12H427.6V282.34H439.65V277.12Z" fill="#E0E0E0"/>
<path d="M385.959 277.12H346.499V282.34H385.959V277.12Z" fill="#E0E0E0"/>
<path d="M369.959 294.64H346.499V299.86H369.959V294.64Z" fill="#E0E0E0"/>
<path d="M385.959 307.06H346.499V312.28H385.959V307.06Z" fill="#E0E0E0"/>
<path d="M367.449 317.47H346.499V322.69H367.449V317.47Z" fill="#E0E0E0"/>
<path d="M445.599 359.68H421.959V371.7H445.599V359.68Z" fill="#E0E0E0"/>
<path d="M439.72 208.63H387.24V213.61H439.72V208.63Z" fill="#E0E0E0"/>
<path d="M339.439 224.13H326.609V229.11H339.439V224.13Z" fill="#E0E0E0"/>
<path d="M360.49 232.47H326.24V237.45H360.49V232.47Z" fill="#E0E0E0"/>
<path d="M428.378 229.117H441.208V224.137H428.378V229.117Z" fill="#E0E0E0"/>
<path d="M407.323 237.458H441.573V232.478H407.323V237.458Z" fill="#E0E0E0"/>
<path d="M360.49 247.87H326.24V252.85H360.49V247.87Z" fill="#E0E0E0"/>
<path d="M413.67 256.52H326.24V261.5H413.67V256.52Z" fill="#E0E0E0"/>
<path d="M327.43 206.11H329.76V214.34H327.43V206.11Z" fill="#E0E0E0"/>
<path d="M339.25 206.11V214.34H337.34L333.71 209.96V214.34H331.43V206.11H333.35L336.98 210.49V206.11H339.25Z" fill="#E0E0E0"/>
<path d="M349.22 206.11L345.69 214.34H343.4L339.89 206.11H342.41L344.64 211.47L346.92 206.11H349.22Z" fill="#E0E0E0"/>
<path d="M349.17 210.23C349.17 207.76 351.11 205.95 353.74 205.95C356.37 205.95 358.31 207.76 358.31 210.23C358.31 212.7 356.37 214.51 353.74 214.51C351.11 214.51 349.17 212.69 349.17 210.23ZM355.97 210.23C355.97 208.81 354.99 207.88 353.75 207.88C352.5 207.88 351.53 208.81 351.53 210.23C351.53 211.65 352.51 212.58 353.75 212.58C354.99 212.58 355.97 211.65 355.97 210.23Z" fill="#E0E0E0"/>
<path d="M359.54 206.11H361.87V214.34H359.54V206.11Z" fill="#E0E0E0"/>
<path d="M363.109 210.23C363.109 207.73 365.019 205.95 367.629 205.95C369.149 205.95 370.369 206.5 371.169 207.5L369.689 208.84C369.169 208.22 368.539 207.88 367.749 207.88C366.399 207.88 365.459 208.82 365.459 210.23C365.459 211.64 366.399 212.58 367.749 212.58C368.539 212.58 369.169 212.24 369.689 211.62L371.169 212.96C370.369 213.96 369.149 214.51 367.629 214.51C365.019 214.5 363.109 212.73 363.109 210.23Z" fill="#E0E0E0"/>
<path d="M378.81 212.54V214.34H372.21V206.11H378.66V207.91H374.51V209.3H378.16V211.04H374.51V212.54H378.81Z" fill="#E0E0E0"/>
<path d="M319.14 193.85C319.14 195.08 318.14 196.09 316.9 196.09C315.66 196.09 314.66 195.09 314.66 193.85C314.66 192.62 315.66 191.61 316.9 191.61C318.14 191.61 319.14 192.61 319.14 193.85Z" fill="#E0E0E0"/>
<path d="M324.9 193.85C324.9 195.08 323.9 196.09 322.66 196.09C321.43 196.09 320.42 195.09 320.42 193.85C320.42 192.62 321.42 191.61 322.66 191.61C323.89 191.61 324.9 192.61 324.9 193.85Z" fill="#E0E0E0"/>
<path d="M330.65 193.85C330.65 195.08 329.65 196.09 328.41 196.09C327.18 196.09 326.17 195.09 326.17 193.85C326.17 192.62 327.17 191.61 328.41 191.61C329.65 191.61 330.65 192.61 330.65 193.85Z" fill="#E0E0E0"/>
<path d="M364.889 35.16C375.039 26.81 390.219 26.83 400.349 35.21C401.249 35.95 402.519 36.09 403.399 35.21C404.159 34.45 404.299 32.91 403.399 32.16C397.569 27.34 390.229 24.53 382.629 24.52C375.029 24.51 367.689 27.3 361.839 32.11C360.939 32.85 361.069 34.39 361.839 35.16C362.729 36.05 363.989 35.9 364.889 35.16Z" fill="#E0E0E0"/>
<path d="M372.009 42.7201C378.079 37.7601 387.159 37.7801 393.219 42.7501C394.119 43.4901 395.389 43.6301 396.269 42.7501C397.029 41.9901 397.169 40.4401 396.269 39.7001C392.409 36.5301 387.639 34.6601 382.619 34.6501C377.599 34.6401 372.819 36.5101 368.959 39.6601C368.059 40.4001 368.189 41.9401 368.959 42.7101C369.859 43.6101 371.109 43.4601 372.009 42.7201Z" fill="#E0E0E0"/>
<path d="M387.949 49.07C387.949 52.02 385.559 54.4 382.619 54.4C379.669 54.4 377.289 52.01 377.289 49.07C377.289 46.12 379.679 43.74 382.619 43.74C385.559 43.74 387.949 46.13 387.949 49.07Z" fill="#E0E0E0"/>
<path d="M466.66 466.76C466.66 466.9 369.65 467.02 250.01 467.02C130.33 467.02 33.3398 466.9 33.3398 466.76C33.3398 466.62 130.33 466.5 250.01 466.5C369.65 466.5 466.66 466.62 466.66 466.76Z" fill="#263238"/>
<path d="M218.92 285.47H81.7702C79.1302 285.47 76.9902 283.33 76.9902 280.69V76.98C76.9902 74.34 79.1302 72.2 81.7702 72.2H218.91C221.55 72.2 223.69 74.34 223.69 76.98V280.69C223.69 283.33 221.55 285.47 218.92 285.47Z" fill="white"/>
<path d="M218.84 285.98H81.8502C78.8902 285.98 76.4902 283.58 76.4902 280.62V77.06C76.4902 74.1 78.8902 71.7 81.8502 71.7H218.84C221.8 71.7 224.2 74.1 224.2 77.06V280.62C224.2 283.57 221.79 285.98 218.84 285.98ZM81.8502 72.72C79.4502 72.72 77.5102 74.67 77.5102 77.06V280.62C77.5102 283.02 79.4602 284.96 81.8502 284.96H218.84C221.24 284.96 223.18 283.01 223.18 280.62V77.06C223.18 74.66 221.23 72.72 218.84 72.72H81.8502Z" fill="#263238"/>
<path d="M213.331 262.21H91.2705V267.19H213.331V262.21Z" fill="#E0E0E0"/>
<path d="M213.331 269.65H91.2705V274.63H213.331V269.65Z" fill="#E0E0E0"/>
<path d="M213.33 157.36H91.2695V245.69H213.33V157.36Z" fill="#F5F5F5"/>
<path d="M212.71 172.67C212.71 172.82 185.44 172.93 151.8 172.93C118.15 172.93 90.8799 172.81 90.8799 172.67C90.8799 172.52 118.15 172.41 151.8 172.41C185.44 172.41 212.71 172.53 212.71 172.67Z" fill="#263238"/>
<path d="M107.34 245.68C107.19 245.68 107.08 226.03 107.08 201.8C107.08 177.56 107.2 157.92 107.34 157.92C107.49 157.92 107.6 177.56 107.6 201.8C107.6 226.04 107.48 245.68 107.34 245.68Z" fill="#263238"/>
<path d="M162.24 246.7C162.09 246.7 161.979 226.82 161.979 202.31C161.979 177.79 162.1 157.92 162.24 157.92C162.38 157.92 162.499 177.79 162.499 202.31C162.499 226.83 162.38 246.7 162.24 246.7Z" fill="#263238"/>
<path d="M189.69 246.7C189.54 246.7 189.43 226.82 189.43 202.31C189.43 177.79 189.55 157.92 189.69 157.92C189.84 157.92 189.95 177.79 189.95 202.31C189.95 226.83 189.84 246.7 189.69 246.7Z" fill="#263238"/>
<path d="M102.65 163.12H95.54V168.34H102.65V163.12Z" fill="#E0E0E0"/>
<path d="M102.65 181.75H95.54V186.97H102.65V181.75Z" fill="#E0E0E0"/>
<path d="M102.65 193.55H95.54V198.77H102.65V193.55Z" fill="#E0E0E0"/>
<path d="M102.65 203.88H95.54V209.1H102.65V203.88Z" fill="#E0E0E0"/>
<path d="M183.43 163.12H168.34V168.34H183.43V163.12Z" fill="#E0E0E0"/>
<path d="M181.12 177.6H170.71V182.82H181.12V177.6Z" fill="#E0E0E0"/>
<path d="M181.12 193.44H170.71V198.66H181.12V193.44Z" fill="#E0E0E0"/>
<path d="M207.46 193.44H197.05V198.66H207.46V193.44Z" fill="#E0E0E0"/>
<path d="M181.12 203.97H170.71V209.19H181.12V203.97Z" fill="#E0E0E0"/>
<path d="M207.38 203.48H196.97V208.7H207.38V203.48Z" fill="#E0E0E0"/>
<path d="M207.38 177.95H196.97V183.17H207.38V177.95Z" fill="#E0E0E0"/>
<path d="M207.37 163.12H195.32V168.34H207.37V163.12Z" fill="#E0E0E0"/>
<path d="M153.68 163.12H114.22V168.34H153.68V163.12Z" fill="#E0E0E0"/>
<path d="M137.68 180.64H114.22V185.86H137.68V180.64Z" fill="#E0E0E0"/>
<path d="M153.68 193.06H114.22V198.28H153.68V193.06Z" fill="#E0E0E0"/>
<path d="M135.17 203.48H114.22V208.7H135.17V203.48Z" fill="#E0E0E0"/>
<path d="M213.329 245.68H189.689V257.7H213.329V245.68Z" fill="#E91706"/>
<path d="M207.451 94.63H154.971V99.61H207.451V94.63Z" fill="#E0E0E0"/>
<path d="M107.17 110.14H94.3398V115.12H107.17V110.14Z" fill="#E0E0E0"/>
<path d="M128.221 118.48H93.9707V123.46H128.221V118.48Z" fill="#E0E0E0"/>
<path d="M196.101 115.113H208.931V110.133H196.101V115.113Z" fill="#E0E0E0"/>
<path d="M175.056 123.454H209.306V118.474H175.056V123.454Z" fill="#E0E0E0"/>
<path d="M128.221 133.87H93.9707V138.85H128.221V133.87Z" fill="#E91706"/>
<path d="M181.401 142.52H93.9707V147.5H181.401V142.52Z" fill="#E0E0E0"/>
<path d="M95.1602 92.12H97.4902V100.35H95.1602V92.12Z" fill="#263238"/>
<path d="M106.971 92.12V100.35H105.051L101.421 95.97V100.35H99.1406V92.12H101.061L104.691 96.5V92.12H106.971Z" fill="#263238"/>
<path d="M116.94 92.12L113.41 100.35H111.12L107.61 92.12H110.13L112.36 97.48L114.64 92.12H116.94Z" fill="#263238"/>
<path d="M116.9 96.23C116.9 93.76 118.84 91.95 121.47 91.95C124.1 91.95 126.04 93.76 126.04 96.23C126.04 98.7 124.1 100.51 121.47 100.51C118.84 100.51 116.9 98.7 116.9 96.23ZM123.69 96.23C123.69 94.81 122.71 93.88 121.47 93.88C120.22 93.88 119.25 94.81 119.25 96.23C119.25 97.65 120.23 98.58 121.47 98.58C122.72 98.58 123.69 97.65 123.69 96.23Z" fill="#263238"/>
<path d="M127.271 92.12H129.601V100.35H127.271V92.12Z" fill="#263238"/>
<path d="M130.83 96.23C130.83 93.73 132.75 91.95 135.35 91.95C136.87 91.95 138.09 92.5 138.89 93.5L137.41 94.84C136.89 94.22 136.26 93.88 135.47 93.88C134.12 93.88 133.18 94.82 133.18 96.23C133.18 97.64 134.12 98.58 135.47 98.58C136.26 98.58 136.89 98.24 137.41 97.62L138.89 98.96C138.09 99.96 136.87 100.51 135.35 100.51C132.75 100.51 130.83 98.73 130.83 96.23Z" fill="#263238"/>
<path d="M146.54 98.54V100.34H139.94V92.11H146.39V93.91H142.24V95.3H145.89V97.04H142.24V98.54H146.54Z" fill="#263238"/>
<path d="M86.8706 79.85C86.8706 81.08 85.8706 82.09 84.6306 82.09C83.4006 82.09 82.3906 81.09 82.3906 79.85C82.3906 78.62 83.3906 77.61 84.6306 77.61C85.8606 77.62 86.8706 78.62 86.8706 79.85Z" fill="#E0E0E0"/>
<path d="M92.6206 79.85C92.6206 81.08 91.6206 82.09 90.3806 82.09C89.1506 82.09 88.1406 81.09 88.1406 79.85C88.1406 78.62 89.1406 77.61 90.3806 77.61C91.6206 77.62 92.6206 78.62 92.6206 79.85Z" fill="#E0E0E0"/>
<path d="M98.3804 79.85C98.3804 81.08 97.3804 82.09 96.1404 82.09C94.9104 82.09 93.9004 81.09 93.9004 79.85C93.9004 78.62 94.9004 77.61 96.1404 77.61C97.3804 77.62 98.3804 78.62 98.3804 79.85Z" fill="#E0E0E0"/>
<path d="M362.21 445.81L231.45 445.23C215.72 445.16 203.03 433.38 203.1 418.9L204.48 117.3C204.55 102.82 217.36 91.13 233.1 91.2C233.11 91.2 233.13 91.2 233.14 91.2L363.86 91.72C379.59 91.79 392.28 103.57 392.21 118.04L390.83 419.67C390.79 434.14 378 445.84 362.27 445.8C362.25 445.81 362.23 445.81 362.21 445.81Z" fill="#263238"/>
<path d="M362.76 100.15L337.45 100.04L263.39 99.72H254.48L232.28 99.63C221.26 99.58 212.29 107.88 212.24 118.17V118.18L210.89 417.13C210.84 427.42 219.73 435.8 230.75 435.84L361.26 436.4C372.28 436.43 381.24 428.12 381.27 417.83V417.82L382.62 118.87C382.67 108.58 373.79 100.2 362.77 100.15H362.76Z" fill="white"/>
<path d="M363.941 126.73C363.941 127.63 363.211 128.36 362.311 128.36C361.411 128.36 360.681 127.63 360.681 126.73C360.681 125.83 361.411 125.1 362.311 125.1H362.321C363.211 125.1 363.941 125.83 363.941 126.73Z" fill="#263238"/>
<path d="M363.92 132.64C363.91 133.54 363.18 134.27 362.28 134.26C361.38 134.25 360.65 133.52 360.66 132.62C360.67 131.72 361.39 131 362.29 131C363.19 131 363.92 131.74 363.92 132.64Z" fill="#263238"/>
<path d="M363.9 138.48C363.91 139.39 363.17 140.13 362.27 140.13C361.36 140.14 360.62 139.4 360.62 138.5C360.61 137.59 361.35 136.85 362.25 136.85C362.26 136.85 362.26 136.85 362.27 136.85C363.17 136.85 363.89 137.58 363.9 138.48Z" fill="#263238"/>
<path d="M331 133.63H257.74C256.29 133.63 255.11 132.45 255.11 131C255.11 129.55 256.29 128.37 257.74 128.37H331C332.45 128.37 333.63 129.55 333.63 131C333.63 132.45 332.45 133.63 331 133.63Z" fill="#E0E0E0"/>
<path d="M333.02 395.31H264.84C256.7 395.31 250.09 388.71 250.09 380.56V380.09C250.09 371.95 256.69 365.34 264.84 365.34H333.02C341.16 365.34 347.77 371.94 347.77 380.09V380.56C347.76 388.71 341.16 395.31 333.02 395.31Z" fill="#E91706"/>
<path d="M295.1 378.98C295.1 380.92 293.64 382.12 291.31 382.12H289.82V384.35H287.41V375.82H291.31C293.64 375.82 295.1 377.03 295.1 378.98ZM292.66 378.98C292.66 378.19 292.16 377.72 291.16 377.72H289.82V380.22H291.16C292.16 380.22 292.66 379.76 292.66 378.98Z" fill="white"/>
<path d="M301.56 382.69H297.95L297.28 384.35H294.82L298.59 375.82H300.97L304.75 384.35H302.24L301.56 382.69ZM300.86 380.91L299.76 378.18L298.66 380.91H300.86Z" fill="white"/>
<path d="M309.46 381.29V384.35H307.05V381.26L303.8 375.82H306.35L308.37 379.21L310.39 375.82H312.73L309.46 381.29Z" fill="white"/>
<path d="M356.29 187.21H230.06C229.21 187.21 228.52 186.52 228.52 185.67V185.62C228.52 184.77 229.21 184.08 230.06 184.08H356.29C357.14 184.08 357.83 184.77 357.83 185.62V185.67C357.83 186.52 357.14 187.21 356.29 187.21Z" fill="#263238"/>
<g opacity="0.3">
<path d="M366.489 312.65C362.479 301.62 360.589 289.93 360.589 278.2V215.67C360.589 194.86 344.009 185.64 344.009 185.64H229.989C229.989 185.64 246.569 194.86 246.569 215.67C246.569 236.48 246.569 289.11 246.569 289.11C246.569 289.11 247.299 335.52 270.319 340.27L380.669 340.12L391.539 340.11V332.91C384.859 327.87 369.929 322.11 366.489 312.65Z" fill="black"/>
</g>
<path d="M371.239 307.16C367.229 296.13 365.339 284.44 365.339 272.71V210.18C365.339 189.37 345.659 185.64 345.659 185.64H231.639C231.639 185.64 251.319 189.37 251.319 210.18C251.319 230.99 251.319 283.62 251.319 283.62C251.319 283.62 252.049 330.03 275.069 334.78L394.409 334.28C382.899 331.9 375.629 319.23 371.239 307.16Z" fill="white"/>
<path d="M371.239 307.16C371.239 307.16 371.559 307.93 372.139 309.44C372.769 310.93 373.659 313.17 375.089 315.98C376.519 318.78 378.459 322.2 381.409 325.73C382.909 327.47 384.659 329.23 386.809 330.76C388.949 332.29 391.529 333.55 394.439 334.14L395.669 334.39L394.419 334.4C367.269 334.54 325.549 334.75 275.079 335.01H275.059H275.039C270.289 334.01 266.029 331.01 263.019 327.06C259.959 323.12 257.799 318.48 256.159 313.64C254.499 308.79 253.369 303.71 252.529 298.52C251.729 293.32 251.149 288.01 251.089 282.61C251.089 261.07 251.089 238.48 251.079 215.24C251.079 213.58 251.079 211.92 251.079 210.26L250.939 207.8L250.869 206.57C250.809 206.17 250.719 205.77 250.649 205.36C250.199 202.12 248.949 199.04 247.179 196.35C245.399 193.66 243.029 191.39 240.349 189.65C237.679 187.9 234.689 186.6 231.629 185.89L229.369 185.37H231.679C273.339 185.38 312.059 185.4 345.699 185.41H345.719H345.739C348.199 185.96 350.499 186.91 352.659 188.06C354.809 189.22 356.809 190.63 358.499 192.33C362.009 195.62 364.129 200.04 364.999 204.49C365.859 208.98 365.499 213.42 365.579 217.68C365.579 221.95 365.569 226.1 365.569 230.12C365.549 246.2 365.529 260.19 365.519 271.7C365.419 283.22 367.099 292.17 368.589 298.12C369.339 301.1 370.049 303.35 370.539 304.86C370.789 305.61 370.979 306.17 371.109 306.56C371.179 306.96 371.239 307.16 371.239 307.16C371.239 307.16 370.939 306.4 370.419 304.9C369.909 303.39 369.179 301.15 368.409 298.17C366.879 292.22 365.149 283.26 365.209 271.72C365.199 260.2 365.179 246.21 365.159 230.14C365.159 226.12 365.149 221.97 365.149 217.7C365.069 213.44 365.419 208.99 364.559 204.59C363.699 200.22 361.619 195.88 358.169 192.66C356.509 190.99 354.539 189.61 352.419 188.47C350.299 187.34 348.009 186.4 345.629 185.87H345.669C312.029 185.88 273.309 185.89 231.649 185.91L231.699 185.39C234.869 186.12 237.869 187.43 240.609 189.22C243.339 191 245.769 193.31 247.589 196.07C249.399 198.82 250.679 201.98 251.139 205.28C251.209 205.69 251.299 206.1 251.359 206.51L251.429 207.76L251.569 210.26C251.569 211.92 251.569 213.58 251.569 215.24C251.569 238.48 251.559 261.06 251.559 282.61C251.619 287.97 252.189 293.28 252.989 298.45C253.829 303.62 254.949 308.68 256.589 313.49C258.219 318.29 260.359 322.89 263.369 326.77C266.339 330.66 270.479 333.58 275.109 334.56H275.059C325.529 334.39 367.249 334.25 394.399 334.16L394.369 334.42C391.419 333.81 388.819 332.52 386.659 330.97C384.489 329.42 382.739 327.63 381.239 325.88C378.289 322.32 376.359 318.89 374.949 316.07C373.539 313.24 372.669 310.99 372.059 309.49C371.509 307.95 371.239 307.16 371.239 307.16Z" fill="#263238"/>
<path d="M398.35 334.26C406.35 328.42 411.55 318.9 412.15 309.01L283.22 308.49C283.87 314.47 283.19 320.6 281.24 326.29C280.12 329.55 278.48 332.81 275.64 334.77L398.35 334.26Z" fill="#E0E0E0"/>
<path d="M398.35 334.26C398.35 334.26 398.15 334.28 397.75 334.29C397.33 334.3 396.74 334.31 395.97 334.32C394.38 334.34 392.06 334.36 389.07 334.39C383.03 334.43 374.28 334.5 363.34 334.57C341.41 334.69 310.72 334.85 275.64 335.03H274.81L275.49 334.55C277.32 333.27 278.7 331.38 279.71 329.32C280.72 327.25 281.43 325.01 282 322.73C283.12 318.16 283.47 313.32 282.95 308.51L282.92 308.22H283.22C284.41 308.22 285.69 308.23 286.98 308.23C338.6 308.48 384.3 308.7 412.15 308.84H412.32L412.31 309C412 313.72 410.72 317.82 409.16 321.15C407.6 324.48 405.75 327.05 404.11 328.99C402.45 330.92 400.97 332.2 399.96 333.05C398.91 333.88 398.35 334.26 398.35 334.26C398.35 334.26 398.48 334.14 398.74 333.93C399.01 333.71 399.39 333.4 399.9 333C400.89 332.14 402.35 330.84 403.98 328.9C405.6 326.96 407.41 324.39 408.94 321.07C410.46 317.76 411.71 313.68 411.99 309.01L412.14 309.17C384.29 309.08 338.58 308.94 286.97 308.78C285.68 308.77 284.4 308.77 283.21 308.76L283.47 308.47C284 313.34 283.64 318.24 282.5 322.87C281.92 325.18 281.2 327.44 280.16 329.57C279.13 331.68 277.7 333.65 275.77 335L275.62 334.53C310.68 334.42 341.34 334.33 363.25 334.26C374.2 334.25 382.96 334.24 389 334.23C392.01 334.24 394.33 334.24 395.92 334.24C396.7 334.25 397.3 334.25 397.71 334.25C398.14 334.25 398.35 334.26 398.35 334.26Z" fill="#263238"/>
<path d="M350.479 209.76C350.479 209.91 331.419 210.02 307.909 210.02C284.389 210.02 265.329 209.9 265.329 209.76C265.329 209.61 284.389 209.5 307.909 209.5C331.419 209.5 350.479 209.62 350.479 209.76Z" fill="#263238"/>
<path d="M350.479 227.91C350.479 228.06 331.419 228.17 307.909 228.17C284.389 228.17 265.329 228.05 265.329 227.91C265.329 227.76 284.389 227.65 307.909 227.65C331.419 227.64 350.479 227.76 350.479 227.91Z" fill="#263238"/>
<path d="M355.55 277.86C355.55 278.01 335.35 278.12 310.45 278.12C285.53 278.12 265.34 278 265.34 277.86C265.34 277.71 285.53 277.6 310.45 277.6C335.35 277.6 355.55 277.72 355.55 277.86Z" fill="#263238"/>
<path d="M297.849 202.2C297.849 203.67 296.629 204.54 294.339 204.54H289.729V196.01H294.089C296.329 196.01 297.429 196.92 297.429 198.24C297.429 199.06 297.019 199.71 296.289 200.09C297.249 200.43 297.849 201.16 297.849 202.2ZM292.119 197.75V199.39H293.779C294.579 199.39 294.999 199.11 294.999 198.56C294.999 198.02 294.589 197.74 293.779 197.74H292.119V197.75ZM295.409 201.93C295.409 201.34 294.969 201.06 294.139 201.06H292.119V202.79H294.139C294.979 202.8 295.409 202.51 295.409 201.93Z" fill="#263238"/>
<path d="M299.109 196.01H301.519V204.54H299.109V196.01Z" fill="#263238"/>
<path d="M303.239 196.01H305.649V202.63H309.719V204.54H303.239V196.01Z" fill="#263238"/>
<path d="M310.68 196.01H313.09V202.63H317.16V204.54H310.68V196.01Z" fill="#263238"/>
<path d="M309.72 216.3H266.47V222.76H309.72V216.3Z" fill="#E0E0E0"/>
<path d="M352.66 216.3H327V222.76H352.66V216.3Z" fill="#E0E0E0"/>
<path d="M307.91 235.87H266.47V242.33H307.91V235.87Z" fill="#E0E0E0"/>
<path d="M283.79 249.7H266.47V256.16H283.79V249.7Z" fill="#E0E0E0"/>
<path d="M294.55 262.48H266.47V268.94H294.55V262.48Z" fill="#E0E0E0"/>
<path d="M357.37 297.86H269.75V304.32H357.37V297.86Z" fill="#E0E0E0"/>
<path d="M353.34 235.87H340.76V242.33H353.34V235.87Z" fill="#E91706"/>
<path d="M353.34 248.24H340.76V254.7H353.34V248.24Z" fill="#E91706"/>
<path d="M353.34 261.98H340.76V268.44H353.34V261.98Z" fill="#E91706"/>
<path d="M353.129 283.64H335.699V290.1H353.129V283.64Z" fill="#E91706"/>
<g opacity="0.3">
<path d="M391.8 155.47L310.93 154.26C306.54 154.26 302.98 150.7 302.98 146.31V91.58H362.07C377.82 91.58 392.21 101.71 392.2 120.1L391.8 155.47Z" fill="black"/>
</g>
<path d="M315.02 59.36H445.15C447.43 59.36 449.28 61.21 449.28 63.49V143.03C449.28 145.31 447.43 147.16 445.15 147.16H315.02C312.74 147.16 310.89 145.31 310.89 143.03V63.49C310.9 61.2 312.74 59.36 315.02 59.36Z" fill="#E91706"/>
<path d="M333.679 79.4099C333.679 80.5299 332.789 81.1899 331.079 81.1899H327.729V74.6899H330.899C332.519 74.6899 333.359 75.3699 333.359 76.3799C333.369 76.9799 333.039 77.5399 332.499 77.8099C333.219 77.9899 333.709 78.6599 333.679 79.4099ZM329.219 75.8199V77.3599H330.719C331.449 77.3599 331.849 77.0999 331.849 76.5899C331.849 76.0799 331.449 75.8199 330.719 75.8199H329.219ZM332.179 79.2499C332.179 78.6999 331.759 78.4399 330.979 78.4399H329.219V80.0399H330.979C331.749 80.0499 332.179 79.8099 332.179 79.2499Z" fill="white"/>
<path d="M339.099 79.7899H336.079L335.499 81.1799H333.949L336.829 74.6799H338.319L341.199 81.1799H339.629L339.099 79.7899ZM338.629 78.6499L337.589 76.1599L336.559 78.6499H338.629Z" fill="white"/>
<path d="M347.89 74.6799V81.1799H346.65L343.41 77.2299V81.1799H341.92V74.6799H343.17L346.4 78.6299V74.6799H347.89Z" fill="white"/>
<path d="M351.79 78.63L350.92 79.59V81.23H349.47V74.73H350.97V77.76L353.85 74.73H355.52L352.83 77.61L355.71 81.21H353.95L351.79 78.63Z" fill="white"/>
<path d="M332.46 106.42H331.27V107.99H330.66V106.42H327.3V105.98L330.46 102.02H331.14L328.1 105.86H330.68V104.49H331.28V105.86H332.47V106.42H332.46Z" fill="white"/>
<path d="M336.839 106.28C336.839 107.24 336.119 108.05 334.679 108.05C333.889 108.08 333.119 107.8 332.529 107.28L332.839 106.79C333.339 107.26 333.999 107.5 334.679 107.48C335.639 107.48 336.219 107.02 336.219 106.28C336.219 105.54 335.709 105.1 334.609 105.1H334.189V104.65L335.839 102.58H332.789V102.03H336.629V102.47L334.949 104.59C336.209 104.7 336.839 105.33 336.839 106.28Z" fill="white"/>
<path d="M341.669 106.24C341.669 107.25 340.969 108.05 339.509 108.05C338.719 108.08 337.959 107.8 337.369 107.28L337.679 106.79C338.169 107.25 338.829 107.5 339.499 107.48C340.519 107.48 341.059 106.99 341.059 106.26C341.059 105.53 340.579 105.02 339.059 105.02H337.789L338.099 102.02H341.369V102.57H338.639L338.429 104.49H339.199C340.979 104.47 341.669 105.18 341.669 106.24Z" fill="white"/>
<path d="M346.929 106.21C346.919 107.24 346.079 108.06 345.049 108.05C344.999 108.05 344.949 108.05 344.899 108.04C343.319 108.04 342.449 106.94 342.449 105.05C342.449 103.02 343.549 101.97 345.179 101.97C345.669 101.95 346.159 102.06 346.589 102.3L346.339 102.79C345.989 102.59 345.589 102.49 345.189 102.51C343.899 102.51 343.079 103.34 343.079 104.96C343.079 105.09 343.079 105.26 343.079 105.44C343.429 104.77 344.149 104.37 344.899 104.42C345.889 104.29 346.789 104.99 346.919 105.98C346.919 106.06 346.929 106.14 346.929 106.21ZM346.319 106.21C346.319 105.42 345.729 104.92 344.819 104.92C344.059 104.83 343.379 105.38 343.289 106.14C343.289 106.17 343.279 106.19 343.279 106.22C343.279 106.88 343.829 107.51 344.859 107.51C345.579 107.59 346.229 107.08 346.309 106.37C346.319 106.33 346.319 106.28 346.319 106.24V106.21Z" fill="white"/>
<path d="M359.809 107.99L358.389 106.12L356.959 107.99H356.279L358.059 105.69L356.369 103.51H357.049L358.389 105.26L359.729 103.51H360.399L358.709 105.66L360.499 107.96L359.809 107.99Z" fill="white"/>
<path d="M364.36 107.99L362.91 106.12L361.48 107.99H360.8L362.58 105.69L360.89 103.51H361.57L362.91 105.26L364.25 103.51H364.91L363.26 105.66L365.05 107.96L364.36 107.99Z" fill="white"/>
<path d="M368.91 107.99L367.49 106.12L366.06 107.99H365.38L367.15 105.69L365.46 103.51H366.14L367.49 105.26L368.83 103.51H369.49L367.8 105.66L369.6 107.96L368.91 107.99Z" fill="white"/>
<path d="M373.469 107.99L372.049 106.12L370.589 107.99H369.909L371.689 105.69L369.999 103.51H370.679L372.019 105.26L373.359 103.51H374.029L372.349 105.66L374.139 107.96L373.469 107.99Z" fill="white"/>
<path d="M389.16 107.99L387.74 106.12L386.31 107.99H385.63L387.4 105.67L385.72 103.49H386.4L387.74 105.24L389.08 103.49H389.79L388.05 105.67L389.85 107.97L389.16 107.99Z" fill="white"/>
<path d="M393.71 107.99L392.29 106.12L390.86 107.99H390.18L391.96 105.69L390.27 103.51H390.95L392.29 105.26L393.63 103.51H394.3L392.61 105.66L394.4 107.96L393.71 107.99Z" fill="white"/>
<path d="M398.259 107.99L396.839 106.12L395.409 107.99H394.729L396.529 105.67L394.839 103.49H395.519L396.859 105.24L398.199 103.49H398.859L397.159 105.67L398.949 107.97L398.259 107.99Z" fill="white"/>
<path d="M402.809 107.99L401.389 106.12L399.959 107.99H399.279L401.049 105.69L399.409 103.51H400.089L401.439 105.26L402.779 103.51H403.439L401.699 105.66L403.499 107.96L402.809 107.99Z" fill="white"/>
<path d="M416.919 102.02V107.98H416.309V102.56H414.899V102.01H416.919V102.02Z" fill="white"/>
<path d="M422.28 106.28C422.28 107.24 421.56 108.05 420.12 108.05C419.33 108.08 418.56 107.8 417.97 107.28L418.28 106.79C418.78 107.26 419.44 107.51 420.12 107.48C421.08 107.48 421.66 107.02 421.66 106.28C421.66 105.54 421.15 105.1 420.05 105.1H419.63V104.65L421.28 102.58H418.23V102.03H422.07V102.47L420.39 104.59C421.64 104.7 422.28 105.33 422.28 106.28Z" fill="white"/>
<path d="M428.209 106.42H427.009V107.99H426.399V106.42H423.029V105.98L426.189 102.02H426.869L423.829 105.86H426.409V104.49H427.009V105.86H428.209V106.42Z" fill="white"/>
<path d="M432.809 107.45V107.99H428.619V107.59L431.099 105.16C431.769 104.5 431.909 104.09 431.909 103.69C431.909 103 431.419 102.58 430.509 102.58C429.899 102.54 429.299 102.78 428.889 103.24L428.449 102.87C428.989 102.29 429.769 101.97 430.559 102.02C431.769 102.02 432.539 102.63 432.539 103.63C432.519 104.36 432.159 105.05 431.579 105.49L429.549 107.49L432.809 107.45Z" fill="white"/>
<path d="M324.23 120.37C324.22 119.56 324.87 118.9 325.68 118.9C325.71 118.9 325.75 118.9 325.78 118.9C326.22 118.88 326.65 119.07 326.94 119.4L326.52 119.79C326.35 119.58 326.09 119.45 325.81 119.45C325.31 119.45 324.9 119.86 324.9 120.36C324.9 120.86 325.31 121.27 325.81 121.27C326.09 121.27 326.35 121.15 326.52 120.93L326.94 121.31C326.65 121.65 326.22 121.84 325.77 121.82C324.96 121.86 324.28 121.24 324.24 120.44C324.24 120.43 324.23 120.4 324.23 120.37Z" fill="white"/>
<path d="M329.21 121.18H327.89L327.63 121.78H326.96L328.23 118.9H328.88L330.15 121.78H329.47L329.21 121.18ZM329.01 120.68L328.56 119.59L328.11 120.68H329.01Z" fill="white"/>
<path d="M332.27 121.79L331.71 121H331.11V121.79H330.46V118.91H331.69C332.45 118.91 332.93 119.3 332.93 119.94C332.94 120.33 332.71 120.69 332.34 120.84L332.97 121.75L332.27 121.79ZM331.65 119.48H331.11V120.44H331.65C332.05 120.44 332.26 120.26 332.26 119.94C332.25 119.63 332.05 119.48 331.65 119.48Z" fill="white"/>
<path d="M333.22 121.51L333.44 121.01C333.72 121.21 334.06 121.31 334.4 121.31C334.79 121.31 334.95 121.19 334.95 121.01C334.95 120.47 333.3 120.84 333.3 119.78C333.3 119.3 333.69 118.9 334.5 118.9C334.84 118.9 335.17 118.98 335.46 119.15L335.26 119.65C335.02 119.51 334.75 119.44 334.47 119.43C334.08 119.43 333.92 119.57 333.92 119.76C333.92 120.28 335.58 119.92 335.58 120.96C335.58 121.44 335.18 121.84 334.37 121.84C333.97 121.84 333.57 121.73 333.22 121.51Z" fill="white"/>
<path d="M339.86 118.95V121.83H339.2V120.67H337.9V121.83H337.25V118.95H337.9V120.07H339.2V118.95H339.86Z" fill="white"/>
<path d="M340.309 120.37C340.259 119.51 340.919 118.78 341.779 118.73C342.639 118.68 343.369 119.34 343.419 120.2C343.469 121.06 342.809 121.79 341.949 121.84C341.919 121.84 341.889 121.84 341.869 121.84C341.059 121.89 340.359 121.27 340.319 120.46C340.309 120.43 340.309 120.4 340.309 120.37ZM342.759 120.37C342.749 119.88 342.339 119.49 341.849 119.5C341.359 119.51 340.969 119.92 340.979 120.41C340.989 120.9 341.389 121.28 341.869 121.28C342.349 121.28 342.739 120.89 342.739 120.41C342.739 120.4 342.739 120.38 342.739 120.37H342.759Z" fill="white"/>
<path d="M343.92 118.95H344.58V121.25H346V121.79H343.92V118.95Z" fill="white"/>
<path d="M346.38 118.95H347.68C348.48 118.95 349.12 119.59 349.12 120.39C349.12 121.19 348.48 121.83 347.68 121.83H346.38V118.95ZM347.65 121.25C348.14 121.25 348.53 120.86 348.54 120.37C348.54 119.88 348.15 119.49 347.66 119.48H347.05V121.25H347.65Z" fill="white"/>
<path d="M351.95 121.26V121.79H349.75V118.91H351.89V119.44H350.42V120.07H351.74V120.59H350.42V121.24L351.95 121.26Z" fill="white"/>
<path d="M354.269 121.79L353.709 121H353.099V121.79H352.449V118.91H353.679C354.439 118.91 354.919 119.3 354.919 119.94C354.929 120.33 354.699 120.69 354.329 120.84L354.959 121.75L354.269 121.79ZM353.639 119.48H353.099V120.44H353.639C354.039 120.44 354.239 120.26 354.239 119.94C354.239 119.62 354.069 119.48 353.659 119.48H353.639Z" fill="white"/>
<path d="M325.11 128.87H364.26C365.1 128.87 365.79 129.55 365.79 130.4V131C365.79 131.84 365.11 132.53 364.26 132.53H325.11C324.27 132.53 323.58 131.85 323.58 131V130.4C323.58 129.55 324.27 128.87 325.11 128.87Z" fill="white"/>
<path d="M413.63 128.87H434.03C434.87 128.87 435.56 129.55 435.56 130.4V131C435.56 131.84 434.88 132.53 434.03 132.53H413.63C412.79 132.53 412.1 131.85 412.1 131V130.4C412.11 129.55 412.79 128.87 413.63 128.87Z" fill="white"/>
<g opacity="0.2">
<path d="M444.7 59.36H315.48C312.95 59.36 310.89 61.41 310.89 63.94V87.12C319.05 92.81 330.27 93.84 340.22 91.74C351.95 89.29 362.57 83.29 373.49 78.37C384.41 73.45 396.42 69.52 408.23 71.54C419.38 73.46 428.88 80.38 438.96 85.52C442.27 87.23 445.73 88.62 449.29 89.69V63.94C449.29 61.4 447.23 59.36 444.7 59.36Z" fill="white"/>
</g>
<path d="M418.899 71.52H425.659C427.329 71.52 428.689 72.87 428.689 74.55V81.31C428.689 82.98 427.339 84.34 425.659 84.34H418.899C417.229 84.34 415.869 82.99 415.869 81.31V74.55C415.869 72.88 417.229 71.52 418.899 71.52Z" fill="white"/>
<path d="M122.509 476.77H115.709L107.479 428.64H117.479L122.509 476.77Z" fill="#AE7461"/>
<path d="M58.8701 476.77H65.6701L73.9001 428.64H63.9001L58.8701 476.77Z" fill="#AE7461"/>
<path d="M236.93 476.77H230.12L221.89 428.64H231.89L236.93 476.77Z" fill="#AE7461"/>
<path d="M173.279 476.77H180.089L188.309 428.64H178.309L173.279 476.77Z" fill="#AE7461"/>
<path d="M237.17 409.38H52.5098V429.68H237.17V409.38Z" fill="#E91706"/>
<path d="M216.709 399.15H102.299C97.3594 399.15 93.3594 395.15 93.3594 390.21V379.85C93.3594 374.91 97.3594 370.91 102.299 370.91H216.709C221.639 370.91 225.649 374.91 225.649 379.85V390.21C225.649 395.15 221.649 399.15 216.709 399.15Z" fill="#E91706"/>
<path d="M241.53 409.91H185.64V354.82H231.74C237.15 354.82 241.53 359.2 241.53 364.61V409.91Z" fill="#E91706"/>
<path d="M200.92 370.92H98.8799V296H187.81C195.05 296 200.92 301.87 200.92 309.11V370.92Z" fill="#E91706"/>
<path d="M221.649 410.23L107.479 410.33V397.65H221.649V410.23Z" fill="#E91706"/>
<path d="M170.21 370.92H52.5098V301.14C52.5098 298.3 54.8098 296 57.6498 296H170.2V370.92H170.21Z" fill="#E91706"/>
<g opacity="0.3">
<path d="M73.7098 370.92H60.3398C56.0198 370.92 52.5098 367.42 52.5098 363.09V301.09C52.5098 298.28 54.7898 296 57.5998 296H81.5298V363.09C81.5298 367.42 78.0298 370.92 73.7098 370.92Z" fill="black"/>
</g>
<path d="M133.03 270.27L127.35 238.52C125.86 228.9 130.21 220.01 139.87 218.78L140.77 218.72C149.82 218.1 157.83 224.53 159.17 233.5C160.42 241.85 161.69 251.08 161.94 255.59C162.46 264.92 153.24 267 153.24 267C153.22 267 153.8 272.65 154.11 275.38L152.55 282.6L133.03 270.27Z" fill="#FFBF9D"/>
<path d="M153.22 267.04C153.22 267.04 147.37 267.79 140.84 264.28C140.84 264.28 144.24 271.09 153.48 269.61L153.22 267.04Z" fill="#FF9A6C"/>
<path d="M156.849 242.19C156.919 242.89 156.389 243.53 155.659 243.62C154.929 243.71 154.279 243.21 154.209 242.51C154.139 241.81 154.669 241.17 155.399 241.08C156.119 240.99 156.779 241.49 156.849 242.19Z" fill="#263238"/>
<path d="M157.42 237.45C157.27 237.63 156.21 236.96 154.78 237.06C153.35 237.14 152.35 237.95 152.18 237.78C152.1 237.71 152.25 237.38 152.68 237.02C153.11 236.66 153.85 236.28 154.75 236.23C155.64 236.17 156.42 236.45 156.87 236.76C157.33 237.06 157.5 237.36 157.42 237.45Z" fill="#263238"/>
<path d="M144.36 243.16C144.43 243.86 143.9 244.5 143.17 244.59C142.44 244.68 141.79 244.19 141.72 243.48C141.65 242.78 142.18 242.14 142.91 242.05C143.64 241.96 144.29 242.45 144.36 243.16Z" fill="#263238"/>
<path d="M143.41 238.74C143.26 238.92 142.2 238.25 140.76 238.35C139.33 238.43 138.33 239.24 138.16 239.07C138.08 239 138.22 238.67 138.66 238.31C139.09 237.95 139.83 237.57 140.73 237.51C141.62 237.45 142.4 237.73 142.85 238.04C143.31 238.35 143.48 238.65 143.41 238.74Z" fill="#263238"/>
<path d="M149.289 249.39C149.279 249.31 150.159 249.09 151.589 248.81C151.949 248.75 152.289 248.65 152.339 248.4C152.409 248.13 152.229 247.75 152.019 247.33C151.619 246.47 151.189 245.57 150.749 244.62C148.979 240.76 147.669 237.57 147.819 237.5C147.979 237.43 149.539 240.5 151.309 244.37C151.739 245.32 152.149 246.23 152.539 247.1C152.709 247.51 152.979 247.96 152.829 248.52C152.749 248.8 152.499 249.02 152.269 249.1C152.039 249.19 151.829 249.21 151.649 249.23C150.209 249.4 149.309 249.47 149.289 249.39Z" fill="#263238"/>
<path d="M143.559 234.22C143.389 234.6 141.969 234.31 140.279 234.39C138.579 234.43 137.189 234.83 136.999 234.46C136.909 234.29 137.179 233.94 137.749 233.6C138.319 233.26 139.209 232.97 140.229 232.93C141.249 232.89 142.159 233.12 142.749 233.42C143.349 233.71 143.639 234.04 143.559 234.22Z" fill="#263238"/>
<path d="M157.199 233.23C156.929 233.58 155.739 233.34 154.329 233.44C152.929 233.5 151.759 233.87 151.459 233.56C151.329 233.41 151.489 233.06 151.979 232.71C152.469 232.36 153.299 232.04 154.259 231.98C155.219 231.93 156.079 232.15 156.599 232.44C157.129 232.74 157.319 233.06 157.199 233.23Z" fill="#263238"/>
<path d="M128.54 245.06C128.38 245 122.01 243.6 122.65 249.96C123.29 256.32 130.67 254.53 130.67 254.53C130.66 254.34 128.54 245.06 128.54 245.06Z" fill="#FFBF9D"/>
<path d="M127.35 251.97C127.32 251.95 127.25 252.06 127.07 252.16C126.9 252.26 126.59 252.35 126.24 252.26C125.54 252.08 124.87 251.07 124.73 249.93C124.66 249.35 124.72 248.79 124.88 248.31C125.03 247.83 125.3 247.47 125.63 247.38C125.96 247.27 126.22 247.45 126.31 247.62C126.41 247.79 126.39 247.92 126.42 247.93C126.44 247.94 126.55 247.81 126.47 247.55C126.43 247.43 126.34 247.28 126.18 247.18C126.02 247.07 125.78 247.03 125.55 247.08C125.06 247.16 124.67 247.66 124.49 248.18C124.29 248.71 124.2 249.34 124.28 249.99C124.45 251.27 125.23 252.4 126.17 252.57C126.63 252.64 126.99 252.47 127.17 252.3C127.35 252.12 127.37 251.98 127.35 251.97Z" fill="#FF9A6C"/>
<path d="M171.02 223.43C170.88 223.07 170.58 222.78 170.23 222.62C169.46 222.26 168.63 222.4 167.81 222.47C165.79 222.64 163.74 222.32 161.85 221.58C162.45 221.2 162.99 220.76 163.44 220.21C164.37 219.08 164.8 217.46 164.2 216.13C164.09 215.88 163.91 215.63 163.64 215.57C163.21 215.48 162.89 215.93 162.64 216.28C161.8 217.43 160.97 217.97 159.54 217.97C158.65 217.97 157.78 217.85 157.05 217.49C157.02 217.46 156.99 217.43 156.96 217.41C156.6 217.1 156.24 216.81 155.89 216.52C153.26 214.38 151.05 212.94 148.84 212.3C145.61 211.36 140.37 211.36 137.22 212.53C134.07 213.7 131.42 216.61 131.29 219.97C129.32 218.61 126.6 218.89 124.48 220L124.42 219.98C122.04 221.1 120.9 223.84 120.42 226.42C120.39 226.56 120.37 226.7 120.35 226.85C119.65 228.25 118.63 229.49 117.35 230.41C117.13 230.57 116.87 230.77 116.87 231.05C116.87 231.32 117.12 231.53 117.36 231.66C117.99 232.02 118.71 232.24 119.43 232.29C119.26 232.91 119.06 233.51 118.78 234.1C118.55 234.6 118.27 235.19 118.56 235.66C118.79 236.02 119.28 236.13 119.69 236.03C120.1 235.93 120.45 235.66 120.79 235.4C120.58 236.08 120.37 236.77 120.16 237.45C121.07 237.52 121.98 237.36 122.82 237.01C123.57 239.31 124.4 243.62 125.16 245.15C126.85 245.01 127.24 244.79 128.12 244.99C129.26 245.25 129.03 247.24 130.41 246.54C131.11 246.19 131.96 243.31 132.13 242.54C133.26 237.45 133.28 232.11 132.19 227.02C133.1 225.83 134.25 224.82 135.54 224.06L135.44 224.17C137.95 223.01 140.8 221.83 143.39 222.81C145.4 223.57 146.72 225.44 148.3 226.89C151.31 229.63 154.53 230.93 158.59 230.7C159.23 233.47 159.79 238.05 160.19 240.66L161.91 235.2V235.22C162.06 234.9 162.18 234.57 162.29 234.25L162.33 234.15V234.14C162.51 233.62 162.68 233.1 162.92 232.58C162.93 232.59 162.94 232.59 162.95 232.6C164.49 233.71 166.4 231.59 165.13 230.18C164.88 229.9 164.59 229.66 164.26 229.46C164.97 230.01 165.96 230.2 166.79 229.86C167.61 229.51 168.19 228.59 168.03 227.71C167.92 227.11 167.43 226.61 166.86 226.43C168.02 226.41 169.16 226.04 170.11 225.37C170.75 224.91 171.33 224.23 171.02 223.43Z" fill="#263238"/>
<path d="M134.33 220.74C134.35 220.76 133.96 221.02 133.48 221.69C133 222.35 132.5 223.46 132.36 224.92C132.28 225.65 132.27 226.45 132.35 227.31C132.43 228.17 132.59 229.08 132.75 230.04C132.91 231 133.08 232.02 133.12 233.09C133.14 233.62 133.13 234.17 133.07 234.72C133.01 235.26 132.92 235.85 132.57 236.35C132.29 236.75 131.77 236.97 131.3 236.92C130.83 236.88 130.39 236.68 130.05 236.37C129.38 235.73 129.15 234.86 128.92 234.09H129.12C128.87 234.82 128.61 235.55 128.18 236.15C127.76 236.75 127.13 237.19 126.47 237.31C126.14 237.37 125.8 237.35 125.49 237.24C125.18 237.13 124.95 236.9 124.77 236.66C124.61 236.41 124.5 236.13 124.49 235.85C124.48 235.57 124.56 235.3 124.72 235.1L124.83 235.18C124.19 236.07 123.48 236.58 122.98 236.88C122.73 237.03 122.52 237.12 122.38 237.18C122.24 237.24 122.17 237.26 122.16 237.26C122.16 237.25 122.23 237.22 122.36 237.15C122.49 237.08 122.69 236.98 122.93 236.82C123.41 236.51 124.1 235.99 124.71 235.11L124.82 235.19C124.54 235.55 124.58 236.14 124.89 236.58C125.05 236.8 125.27 236.99 125.54 237.09C125.81 237.19 126.12 237.21 126.42 237.15C127.03 237.03 127.61 236.62 128.01 236.05C128.42 235.48 128.67 234.77 128.91 234.04L129.01 233.73L129.1 234.05C129.33 234.82 129.57 235.65 130.18 236.23C130.48 236.51 130.88 236.69 131.3 236.72C131.72 236.76 132.13 236.58 132.38 236.24C132.69 235.81 132.78 235.25 132.84 234.72C132.9 234.18 132.91 233.65 132.89 233.12C132.85 232.07 132.69 231.06 132.54 230.1C132.39 229.14 132.23 228.22 132.16 227.35C132.08 226.48 132.1 225.66 132.19 224.93C132.36 223.45 132.89 222.32 133.4 221.67C133.93 220.98 134.33 220.74 134.33 220.74Z" fill="#455A64"/>
<path d="M164.01 226.96C164.01 226.96 163.99 226.99 163.94 227.03C163.88 227.08 163.81 227.15 163.72 227.22C163.63 227.31 163.51 227.41 163.35 227.51C163.2 227.62 163.03 227.75 162.81 227.86C161.99 228.36 160.64 228.9 158.9 228.97C157.17 229.04 155.05 228.64 153.08 227.45C151.09 226.3 149.26 224.49 147.71 222.36C146.92 221.3 146.26 220.2 145.54 219.19C144.83 218.18 144.07 217.26 143.18 216.56C142.3 215.86 141.32 215.37 140.34 215.2C139.85 215.11 139.37 215.12 138.91 215.18C138.45 215.25 138.03 215.39 137.64 215.56C136.86 215.91 136.26 216.42 135.81 216.92C135.36 217.43 135.08 217.95 134.89 218.39C134.55 219.29 134.58 219.84 134.55 219.83C134.55 219.83 134.55 219.8 134.55 219.73C134.55 219.65 134.56 219.56 134.57 219.44C134.59 219.19 134.66 218.81 134.82 218.35C135 217.9 135.27 217.36 135.72 216.84C136.17 216.32 136.78 215.79 137.57 215.42C137.97 215.24 138.41 215.09 138.88 215.02C139.35 214.96 139.86 214.94 140.37 215.03C141.39 215.2 142.41 215.7 143.31 216.41C144.22 217.12 145 218.06 145.72 219.07C146.44 220.08 147.11 221.18 147.89 222.23C149.43 224.34 151.23 226.13 153.19 227.27C155.13 228.45 157.2 228.86 158.9 228.81C160.62 228.76 161.95 228.25 162.78 227.78C163.61 227.33 163.99 226.94 164.01 226.96Z" fill="#455A64"/>
<path d="M164.46 222.79C164.47 222.8 164.36 222.9 164.15 223.06C163.94 223.22 163.62 223.43 163.21 223.66C162.8 223.89 162.28 224.12 161.7 224.33C161.11 224.53 160.44 224.69 159.73 224.79C159.01 224.88 158.33 224.89 157.7 224.85C157.08 224.8 156.52 224.71 156.06 224.59C155.6 224.48 155.24 224.36 155 224.25C154.76 224.15 154.63 224.09 154.63 224.07C154.64 224.03 155.18 224.25 156.09 224.43C156.54 224.53 157.09 224.6 157.7 224.64C158.31 224.67 158.99 224.65 159.69 224.56C160.39 224.46 161.05 224.31 161.63 224.12C162.21 223.93 162.72 223.72 163.14 223.51C163.97 223.1 164.43 222.76 164.46 222.79Z" fill="#455A64"/>
<path d="M149.64 253.74C149.54 253.52 148.1 254.26 146.45 253.56C144.79 252.87 144.16 251.25 143.95 251.35C143.85 251.38 143.85 251.84 144.17 252.49C144.48 253.13 145.16 253.95 146.18 254.38C147.19 254.8 148.19 254.69 148.81 254.44C149.43 254.18 149.7 253.84 149.64 253.74Z" fill="#263238"/>
<path d="M238.42 390.45L250.72 406.87C250.72 406.87 271.54 399.88 274.11 402.7L243.12 427.69L222.91 402.89L238.42 390.45Z" fill="#263238"/>
<path d="M240.06 413.26C239.59 413.91 239.72 414.92 240.35 415.41C240.98 415.9 242 415.78 242.48 415.14C242.96 414.5 242.84 413.29 242.16 412.87C241.48 412.45 240.28 412.66 239.97 413.4" fill="#E0E0E0"/>
<path d="M243.13 427.69L241.19 425.11L271.62 402.11C271.62 402.11 273.48 401.6 274.11 402.69L243.13 427.69Z" fill="#455A64"/>
<path d="M251.1 406.31C251.22 406.47 250.52 407.14 250.16 408.23C249.78 409.31 249.92 410.27 249.74 410.33C249.58 410.41 249.07 409.33 249.52 408.02C249.96 406.7 251.02 406.15 251.1 406.31Z" fill="white"/>
<path d="M255.43 405.03C255.58 405.15 255.14 405.93 255.14 406.99C255.11 408.04 255.54 408.84 255.38 408.96C255.26 409.1 254.44 408.3 254.46 406.99C254.47 405.67 255.31 404.89 255.43 405.03Z" fill="white"/>
<path d="M260.42 407.44C260.31 407.58 259.49 407 259.21 405.86C258.92 404.72 259.37 403.82 259.54 403.89C259.73 403.95 259.62 404.76 259.87 405.69C260.08 406.63 260.55 407.3 260.42 407.44Z" fill="white"/>
<path d="M247.88 402.88C247.93 403.07 247.07 403.42 246.26 404.17C245.44 404.9 245 405.73 244.82 405.66C244.64 405.62 244.84 404.54 245.81 403.67C246.76 402.79 247.86 402.7 247.88 402.88Z" fill="white"/>
<path d="M210.789 446.44L210.009 466.94C210.009 466.94 230.589 474.62 230.809 478.42L190.999 478.34L190.899 446.34L210.789 446.44Z" fill="#263238"/>
<path d="M197.71 465.19C196.94 465.4 196.41 466.26 196.58 467.04C196.76 467.82 197.63 468.37 198.41 468.17C199.18 467.97 199.86 466.96 199.59 466.2C199.33 465.45 198.26 464.86 197.56 465.23" fill="#E0E0E0"/>
<path d="M191.01 478.34L191.13 475.11L229.25 476.4C229.25 476.4 231.02 477.17 230.82 478.42L191.01 478.34Z" fill="#455A64"/>
<path d="M210.66 466.74C210.65 466.93 209.68 467.02 208.72 467.64C207.75 468.24 207.25 469.08 207.07 469C206.89 468.96 207.18 467.8 208.36 467.07C209.53 466.33 210.7 466.56 210.66 466.74Z" fill="white"/>
<path d="M214.83 468.48C214.87 468.67 214.03 469 213.37 469.82C212.68 470.62 212.52 471.51 212.32 471.5C212.14 471.53 212.01 470.39 212.85 469.39C213.68 468.37 214.83 468.29 214.83 468.48Z" fill="white"/>
<path d="M217.189 473.48C217.009 473.52 216.739 472.55 217.249 471.49C217.739 470.42 218.659 470 218.739 470.17C218.849 470.33 218.259 470.9 217.859 471.78C217.439 472.64 217.389 473.46 217.189 473.48Z" fill="white"/>
<path d="M210.319 462.05C210.239 462.23 209.349 461.96 208.249 462.03C207.149 462.08 206.289 462.45 206.189 462.28C206.079 462.14 206.909 461.42 208.209 461.35C209.509 461.28 210.419 461.9 210.319 462.05Z" fill="white"/>
<path d="M129.89 356.53C130.41 356.37 148.52 348.42 163.42 342.29C173.32 338.21 185.65 336.03 185.65 336.03C185.65 336.03 200.77 327.23 206.51 335.23C212.25 343.23 252.99 399 252.7 399.86C252.41 400.72 232.93 418.01 232.93 418.01C232.93 418.01 190.96 364.57 190.1 364.86C189.24 365.15 169.83 380.34 169.83 380.34C169.83 380.34 164 386.36 159.7 386.94C155.4 387.51 130.23 385.52 130.23 385.52L120.7 359.69L129.89 356.53Z" fill="#263238"/>
<path d="M151.3 379.04C152.2 379.64 161.76 386.34 161.76 386.34L183.39 391.34L187.8 462.39L213.65 461.47C213.65 461.47 213.69 410.24 213.69 398.24C213.69 386.24 213.39 375.14 209.79 371.24C206.19 367.34 190.1 364.87 190.1 364.87L151.3 379.04Z" fill="#263238"/>
<path d="M213.66 395.48C213.64 395.48 213.63 395.19 213.62 394.64C213.61 394.04 213.6 393.24 213.59 392.23C213.56 390.14 213.5 387.11 213.25 383.38C213.1 381.52 212.92 379.48 212.57 377.32C212.47 376.78 212.36 376.24 212.26 375.68C212.11 375.14 211.99 374.58 211.82 374.03C211.47 372.93 210.99 371.85 210.1 371.06C208.24 369.52 205.8 368.53 203.28 367.65C200.74 366.79 198.05 366.09 195.27 365.46C193.81 365.14 192.37 364.84 191 364.6L191.21 364.55C183.02 370.95 175.75 376.64 170.47 380.76C167.87 382.76 165.76 384.39 164.26 385.54C163.55 386.07 162.99 386.49 162.57 386.81C162.18 387.1 161.97 387.24 161.96 387.22C161.95 387.21 162.14 387.04 162.51 386.72C162.92 386.38 163.46 385.93 164.14 385.37C165.62 384.18 167.69 382.51 170.25 380.45C175.5 376.29 182.74 370.55 190.88 364.1L190.97 364.03L191.09 364.05C192.47 364.29 193.92 364.58 195.39 364.91C198.18 365.54 200.89 366.25 203.46 367.13C206 368.03 208.47 369.03 210.44 370.67C211.42 371.55 211.93 372.75 212.28 373.87C212.46 374.44 212.57 375.01 212.72 375.57C212.82 376.13 212.92 376.69 213.02 377.23C213.36 379.42 213.52 381.47 213.64 383.34C213.84 387.09 213.84 390.12 213.81 392.22C213.79 393.27 213.76 394.08 213.74 394.63C213.7 395.19 213.67 395.48 213.66 395.48Z" fill="#455A64"/>
<path d="M130.29 271.61L131.87 263.59L149.32 273.41L153.34 268.16L153.75 269.78L171.1 299.35L182.16 335.09L134.76 354.46L129.58 325.29L130.29 271.61Z" fill="#FAFAFA"/>
<path d="M166.84 331.17C166.82 331.17 166.78 330.97 166.71 330.59C166.64 330.14 166.55 329.59 166.44 328.9C166.23 327.43 165.88 325.31 165.4 322.7C164.46 317.48 162.88 310.32 160.5 302.59C158.11 294.86 155.37 288.05 153.21 283.21C152.13 280.79 151.22 278.84 150.57 277.51C150.28 276.88 150.03 276.37 149.84 275.96C149.68 275.6 149.6 275.41 149.62 275.4C149.64 275.39 149.75 275.57 149.94 275.91C150.16 276.31 150.43 276.8 150.76 277.41C151.47 278.72 152.43 280.64 153.56 283.05C155.82 287.86 158.62 294.67 161.02 302.42C163.41 310.18 164.93 317.38 165.78 322.63C166.21 325.25 166.5 327.38 166.65 328.86C166.72 329.55 166.77 330.11 166.82 330.56C166.85 330.96 166.86 331.17 166.84 331.17Z" fill="#263238"/>
<path d="M156.08 275.14C156.11 275.16 155.89 275.46 155.48 275.99C154.99 276.59 154.39 277.34 153.67 278.22L153.56 278.36L153.42 278.24C152.2 277.16 150.73 275.85 149.06 274.38L149.46 274.27C148.97 275.98 148.44 277.85 147.87 279.82L147.78 280.13L147.49 279.99C147.09 279.79 146.66 279.58 146.23 279.37C142.04 277.3 138.27 275.4 135.55 274C134.27 273.33 133.2 272.77 132.34 272.32C131.59 271.91 131.18 271.67 131.2 271.64C131.22 271.61 131.66 271.78 132.44 272.13C133.32 272.54 134.42 273.05 135.73 273.66C138.49 274.97 142.3 276.82 146.48 278.89C146.91 279.1 147.34 279.32 147.74 279.51L147.36 279.68C147.94 277.72 148.49 275.85 148.99 274.14L149.1 273.76L149.39 274.03C151.01 275.54 152.46 276.89 153.65 278L153.4 278.02C154.17 277.17 154.81 276.47 155.33 275.89C155.8 275.37 156.06 275.11 156.08 275.14Z" fill="#263238"/>
<g opacity="0.3">
<path d="M130.239 385.52L134.759 385.86L141.299 351.67C141.299 351.67 134.169 356.01 133.989 356.56C133.809 357.11 130.239 385.52 130.239 385.52Z" fill="black"/>
</g>
<path d="M131.21 266.92L128.47 271.99L113.52 280.04L118.43 335.36C118.43 335.36 108.92 362.34 108.92 374.28C108.92 386.22 111.57 391.97 114.67 393.52C117.77 395.07 129.71 389.32 129.71 389.32C129.71 389.32 131 382.28 137.93 366.33C144.87 350.38 152.26 332.94 152.26 332.94C152.26 332.94 154.47 324.32 149.39 308.62C144.29 292.9 131.21 266.92 131.21 266.92Z" fill="#455A64"/>
<path d="M201.479 291.29C201.479 291.29 201.169 282.96 201.609 281.56C201.609 281.55 201.619 281.53 201.619 281.52C202.289 279.44 204.709 277.26 206.859 276.87C207.989 276.67 208.899 276.72 209.279 277.1C209.699 277.51 210.259 280.62 210.259 280.62L221.389 278.56C221.389 278.56 214.809 288.82 212.959 291.58C211.099 294.33 209.179 296.16 209.179 296.16L196.889 325.45L191.899 308.77L201.479 291.29Z" fill="#FFBF9D"/>
<path d="M225.899 261.08C223.119 266.38 213.779 284.55 211.109 289.74C210.709 290.52 209.759 290.85 208.959 290.49C208.089 290.1 207.729 289.06 208.159 288.22L222.899 259.53C223.329 258.68 224.379 258.36 225.209 258.82C226.019 259.26 226.329 260.26 225.899 261.08Z" fill="#263238"/>
<path d="M222.14 268.7C222.41 268.74 223.49 268.46 223.65 269.71C223.8 270.96 223.61 275.27 222.99 275.55C222.37 275.83 221.41 276.27 221.41 276.27C221.41 276.27 221.98 278.99 221.34 279.94C220.7 280.89 219.49 281.52 219.49 281.52C219.49 281.52 219.44 283.78 218.76 284.66C218.09 285.54 216.51 287 216.51 287C216.51 287 216.07 290.6 214.39 291.27C212.71 291.94 212.33 292.47 212.33 292.47L211.8 290.3C211.8 290.3 207.23 287.16 206.31 286.58C205.39 286.01 204.97 284.71 205.86 284.13C206.76 283.56 212.68 286.58 212.68 286.58L214.82 284.37L213.55 281.93C213.55 281.93 210.94 279.09 211 278.49C211.06 277.89 212.17 276.88 213.22 276.99C214.26 277.1 216.87 279.39 216.87 279.39C217.06 279.88 217.74 279.92 217.99 279.45L218.15 279.15C218.15 279.15 217.24 276.33 216.76 274.22C216.63 273.66 216.81 272.7 217.35 272.46C218.43 271.97 219.34 271.93 219.93 272.96L222.14 268.7Z" fill="#FFBF9D"/>
<path d="M204.38 280.68C204.38 280.74 204.88 280.77 205.72 280.77L205.56 280.65C205.68 281.18 205.8 281.91 206.28 282.64C206.51 283 206.88 283.35 207.35 283.54C207.8 283.73 208.4 283.79 208.92 283.51C209.37 283.26 209.62 282.81 209.75 282.41C209.88 282 209.93 281.61 209.97 281.24C210.05 280.5 210.02 279.83 209.96 279.27C209.82 278.15 209.53 277.52 209.48 277.53C209.4 277.55 209.56 278.21 209.61 279.29C209.63 279.83 209.62 280.47 209.52 281.17C209.42 281.85 209.29 282.71 208.68 283.05C208.34 283.24 207.91 283.21 207.54 283.06C207.17 282.91 206.88 282.66 206.66 282.36C206.22 281.75 206.04 281.06 205.88 280.55L205.84 280.42L205.72 280.43C204.86 280.54 204.38 280.62 204.38 280.68Z" fill="#FF9A6C"/>
<path d="M211.799 290.31C211.839 290.25 211.079 289.66 209.829 288.76C209.149 288.28 208.409 287.76 207.609 287.19C207.189 286.9 206.759 286.6 206.309 286.29C205.929 285.98 205.559 285.51 205.499 285.05C205.419 284.61 205.909 284.29 206.359 284.35C206.859 284.39 207.379 284.54 207.849 284.69C208.799 285.01 209.649 285.36 210.359 285.66C211.779 286.26 212.639 286.66 212.679 286.6C212.709 286.54 211.899 286.03 210.509 285.33C209.809 284.99 208.979 284.59 207.999 284.24C207.509 284.07 206.989 283.9 206.379 283.84C206.089 283.79 205.669 283.89 205.419 284.1C205.129 284.3 204.929 284.72 204.989 285.09C205.099 285.81 205.529 286.29 205.999 286.67C206.459 286.98 206.909 287.28 207.349 287.57C208.169 288.1 208.929 288.59 209.619 289.04C210.929 289.88 211.759 290.36 211.799 290.31Z" fill="#FF9A6C"/>
<path d="M218.85 282.53C218.98 282.51 218.89 281.59 218.29 280.64C217.7 279.69 216.9 279.22 216.83 279.33C216.74 279.44 217.32 280.05 217.86 280.92C218.41 281.78 218.71 282.57 218.85 282.53Z" fill="#FF9A6C"/>
<path d="M219.57 272.51C219.44 272.58 219.86 273.5 220.45 274.55C221.03 275.59 221.37 276.5 221.51 276.47C221.64 276.45 221.51 275.41 220.9 274.31C220.28 273.22 219.68 272.45 219.57 272.51Z" fill="#FF9A6C"/>
<path d="M197.169 298.35C196.729 299.01 190.129 310.44 190.129 310.44C190.129 310.44 175.049 275.98 169.829 275.43C164.439 274.86 168.619 290.35 168.619 290.35L181.579 329.9C181.579 329.9 190.689 332.72 195.769 329.4C200.859 326.08 212.309 303.24 212.309 303.24L197.169 298.35Z" fill="#455A64"/>
<path d="M153.739 269.54C153.739 269.54 166.249 293.96 169.829 306.9C172.179 315.39 175.519 338.34 175.519 338.34L185.819 336.06L177.019 305.29L169.829 275.44L158.699 273.24L153.739 269.54Z" fill="#455A64"/>
<path d="M149.9 328.08C149.89 328.09 149.78 327.91 149.59 327.56C149.38 327.16 149.1 326.65 148.77 326.02C148.04 324.61 147.04 322.67 145.82 320.31C143.34 315.41 139.97 308.73 136.25 301.36C134.41 297.64 132.59 294.15 131.08 290.85C129.58 287.55 128.5 284.37 128.05 281.57C127.58 278.77 127.65 276.43 127.88 274.87C127.99 274.09 128.13 273.49 128.23 273.09C128.34 272.69 128.41 272.49 128.42 272.49C128.47 272.51 128.22 273.34 128.05 274.89C127.88 276.44 127.86 278.74 128.36 281.48C128.85 284.22 129.94 287.34 131.45 290.6C132.97 293.86 134.8 297.36 136.64 301.07C140.32 308.47 143.65 315.17 146.09 320.1C147.26 322.5 148.21 324.47 148.91 325.9C149.21 326.55 149.46 327.08 149.66 327.49C149.84 327.87 149.92 328.07 149.9 328.08Z" fill="#263238"/>
<path d="M173.83 283.13C173.85 283.12 173.92 283.29 174.05 283.62C174.19 284.01 174.36 284.48 174.57 285.05C175 286.3 175.57 288.12 176.21 290.4C177.47 294.95 178.85 301.34 180.03 308.45C180.61 312 181.17 315.38 181.68 318.46C181.94 319.99 182.18 321.45 182.41 322.83C182.65 324.18 182.99 325.42 183.34 326.54C184.04 328.78 184.71 330.57 185.11 331.83C185.31 332.46 185.46 332.95 185.55 333.29C185.64 333.63 185.67 333.81 185.66 333.81C185.64 333.82 185.57 333.65 185.45 333.32C185.31 332.94 185.13 332.47 184.92 331.9C184.46 330.66 183.74 328.9 182.98 326.65C182.61 325.53 182.23 324.28 181.97 322.9C181.73 321.53 181.46 320.07 181.19 318.54C180.67 315.46 180.1 312.08 179.5 308.53C178.32 301.43 177.01 295.06 175.84 290.49C175.25 288.21 174.74 286.37 174.37 285.11C174.2 284.53 174.06 284.04 173.95 283.65C173.85 283.32 173.81 283.14 173.83 283.13Z" fill="#263238"/>
<path d="M158.7 273.23C158.71 273.21 158.88 273.3 159.2 273.48C159.52 273.67 159.97 273.97 160.53 274.4C161.64 275.26 163.15 276.63 164.83 278.49C165.67 279.42 166.56 280.47 167.45 281.65C168.33 282.85 169.16 284.18 170.01 285.61C171.69 288.46 173.36 291.73 174.6 295.36C175.89 298.96 176.84 302.51 177.26 305.81C177.7 309.11 177.58 312.13 177.28 314.62C176.98 317.11 176.53 319.09 176.17 320.45C175.99 321.13 175.83 321.65 175.72 322C175.6 322.35 175.54 322.53 175.52 322.53C175.5 322.52 175.54 322.33 175.62 321.97C175.71 321.55 175.83 321.03 175.97 320.4C176.27 319.04 176.66 317.06 176.91 314.58C177.15 312.11 177.23 309.13 176.77 305.88C176.33 302.63 175.38 299.12 174.1 295.55C172.86 291.96 171.23 288.72 169.59 285.87C168.76 284.45 167.95 283.1 167.1 281.92C166.25 280.74 165.38 279.69 164.56 278.75C162.92 276.87 161.47 275.47 160.41 274.57C159.34 273.67 158.68 273.27 158.7 273.23Z" fill="#263238"/>
<path d="M128.97 363.3C128.99 363.29 129.06 363.49 129.17 363.88C129.27 364.26 129.4 364.83 129.52 365.57C129.75 367.04 129.92 369.18 129.62 371.75L129.59 371.99L129.35 371.95C126.52 371.47 123.11 371.03 119.42 370.84C115.62 370.64 112.08 370.73 109.16 370.92L108.66 370.95L108.96 370.56C110.4 368.66 111.62 367.05 112.55 365.82C113.43 364.69 113.94 364.06 113.98 364.09C114.02 364.12 113.57 364.8 112.76 365.98C111.87 367.24 110.7 368.89 109.32 370.84L109.12 370.48C112.06 370.22 115.62 370.1 119.45 370.3C123.16 370.49 126.6 370.96 129.43 371.5L129.16 371.7C129.51 369.19 129.41 367.08 129.26 365.62C129.1 364.14 128.92 363.31 128.97 363.3Z" fill="#263238"/>
<path d="M113.52 280.04C113.52 280.04 104.26 286.22 103.02 293.28C101.36 302.79 104.64 336.11 105.51 343.69C106.38 351.26 111.35 357.97 116.54 358.4C121.73 358.83 162.84 343.91 162.84 343.91L158.73 328.77L128.88 334.83L125.85 299.78L113.52 280.04Z" fill="#455A64"/>
<path d="M126.229 304.23L128.869 334.81L158.719 328.75L162.829 343.89C162.829 343.89 131.409 356.31 126.999 356.86C122.589 357.41 110.639 359.65 108.069 351.66" fill="#455A64"/>
<path d="M174.219 308.17L187.939 309.65C188.459 309.71 188.829 310.17 188.779 310.69L186.329 333.38C186.269 333.9 185.809 334.27 185.289 334.22L171.569 332.74C171.049 332.68 170.679 332.22 170.729 331.7L173.179 309.01C173.239 308.49 173.699 308.12 174.219 308.17Z" fill="#E91706"/>
<path d="M174.219 308.17C174.229 308.21 173.899 308.11 173.519 308.45C173.319 308.63 173.239 308.91 173.229 309.31C173.189 309.7 173.159 310.14 173.109 310.64C172.909 312.69 172.629 315.56 172.279 319.08C171.909 322.66 171.469 326.9 170.989 331.6C170.889 332.11 171.219 332.52 171.779 332.51C172.379 332.57 172.989 332.64 173.609 332.7C174.839 332.83 176.099 332.96 177.379 333.1C179.939 333.37 182.589 333.66 185.309 333.95C185.559 333.98 185.809 333.86 185.949 333.66C186.019 333.55 186.059 333.45 186.069 333.31L186.119 332.81C186.189 332.14 186.259 331.47 186.339 330.81C186.479 329.49 186.629 328.18 186.769 326.9C187.049 324.34 187.319 321.87 187.579 319.51C187.839 317.16 188.089 314.92 188.329 312.83C188.389 312.31 188.449 311.79 188.499 311.29C188.519 311.05 188.569 310.76 188.569 310.57C188.569 310.38 188.479 310.19 188.339 310.06C188.189 309.92 188.039 309.86 187.799 309.85C187.559 309.82 187.329 309.8 187.089 309.77C186.619 309.72 186.169 309.66 185.719 309.61C182.199 309.2 179.339 308.86 177.299 308.62C176.349 308.5 175.579 308.4 175.009 308.32C174.499 308.24 174.219 308.19 174.219 308.17C174.219 308.15 174.499 308.16 175.029 308.2C175.599 308.25 176.369 308.32 177.329 308.4C179.379 308.6 182.249 308.88 185.769 309.23C186.219 309.28 186.669 309.32 187.139 309.37C187.369 309.39 187.609 309.42 187.849 309.44C188.089 309.45 188.419 309.55 188.629 309.75C188.849 309.95 188.989 310.24 188.999 310.55C188.989 310.86 188.949 311.07 188.929 311.33C188.879 311.84 188.819 312.35 188.769 312.87C188.549 314.97 188.319 317.21 188.069 319.56C187.819 321.92 187.559 324.39 187.289 326.95C187.149 328.23 187.009 329.54 186.869 330.86C186.799 331.52 186.729 332.19 186.659 332.86L186.609 333.36C186.599 333.55 186.519 333.78 186.399 333.96C186.159 334.32 185.699 334.53 185.269 334.48C182.549 334.19 179.899 333.9 177.339 333.62C176.059 333.48 174.799 333.34 173.569 333.21C172.949 333.14 172.339 333.08 171.739 333.01C171.459 333.01 170.989 332.87 170.779 332.57C170.529 332.3 170.449 331.84 170.519 331.55C171.049 326.86 171.519 322.62 171.929 319.05C172.339 315.53 172.679 312.67 172.919 310.62C172.979 310.13 173.039 309.69 173.089 309.3C173.109 308.93 173.229 308.55 173.459 308.38C173.899 308.02 174.239 308.18 174.219 308.17Z" fill="#263238"/>
<path d="M184.306 319.052L182.676 318.876L182.364 321.769L183.994 321.945L184.306 319.052Z" fill="white"/>
<path d="M184.763 314.834L183.133 314.658L182.821 317.551L184.451 317.727L184.763 314.834Z" fill="white"/>
<path d="M183.855 323.283L182.225 323.107L181.912 326L183.543 326.176L183.855 323.283Z" fill="white"/>
<path d="M183.373 327.453L181.742 327.277L181.43 330.17L183.06 330.346L183.373 327.453Z" fill="white"/>
<path d="M108.08 351.67C108.09 351.67 108.14 351.76 108.22 351.94C108.31 352.14 108.43 352.41 108.59 352.74C108.93 353.42 109.58 354.39 110.73 355.28C111.88 356.18 113.59 356.87 115.66 357.18C117.73 357.5 120.14 357.48 122.78 357.22C124.1 357.09 125.48 356.88 126.94 356.69C128.34 356.45 129.8 355.94 131.29 355.47C134.28 354.48 137.47 353.32 140.82 352.08C147.53 349.59 154.92 346.74 162.73 343.66L162.57 343.98C161.84 341.3 161.08 338.48 160.3 335.62C159.68 333.33 159.06 331.06 158.46 328.84L158.78 329.04C147.81 331.25 137.64 333.3 128.92 335.05L128.67 335.1L128.65 334.85C127.9 325.65 127.27 318.01 126.83 312.64C126.63 309.99 126.47 307.91 126.36 306.44C126.31 305.75 126.28 305.21 126.25 304.81C126.23 304.44 126.22 304.25 126.24 304.25C126.25 304.25 126.28 304.44 126.32 304.8C126.36 305.2 126.42 305.74 126.49 306.42C126.63 307.88 126.83 309.96 127.09 312.6C127.58 317.97 128.27 325.61 129.11 334.8L128.84 334.6C137.56 332.82 147.72 330.74 158.69 328.5L158.94 328.45L159.01 328.7C159.61 330.92 160.23 333.19 160.85 335.48C161.63 338.34 162.39 341.16 163.12 343.84L163.18 344.07L162.95 344.16C155.13 347.23 147.73 350.06 141.01 352.53C137.65 353.76 134.46 354.9 131.45 355.87C129.94 356.34 128.5 356.83 127.01 357.08C125.56 357.26 124.17 357.46 122.84 357.58C120.17 357.82 117.73 357.81 115.63 357.46C113.53 357.12 111.79 356.39 110.63 355.44C109.46 354.5 108.83 353.49 108.52 352.79C108.39 352.45 108.28 352.18 108.2 351.97C108.1 351.77 108.07 351.68 108.08 351.67Z" fill="#263238"/>
<path d="M108 286.22C108 286.17 109.02 286.03 110.66 286.23C112.3 286.42 114.55 287.05 116.74 288.35C118.92 289.65 120.55 291.33 121.5 292.68C122.46 294.03 122.83 295 122.78 295.02C122.7 295.07 122.21 294.17 121.19 292.92C120.18 291.66 118.57 290.09 116.45 288.82C114.33 287.57 112.18 286.9 110.59 286.61C109.02 286.31 108 286.31 108 286.22Z" fill="#263238"/>
<path d="M159.38 330.11C159.38 330.11 168.96 320.8 170.67 318.9C172.38 317 182.63 316.52 184.17 317.21C185.71 317.9 185.49 320.01 184.56 320.32C183.63 320.63 178.07 320.26 176.36 320.93C174.65 321.59 180.73 321.39 183.22 323.24C185.7 325.09 184.32 326.3 183.37 326.37C183.37 326.37 184.7 327.55 183.65 328.68C182.6 329.81 181.41 329.29 181.41 329.29C181.41 329.29 183.09 330.01 182.44 331.4C181.79 332.79 179.45 332.21 179.45 332.21C179.45 332.21 175.77 330.84 175.17 331.07C174.57 331.31 172.69 334.32 170.64 336.03C168.04 338.19 164.8 337.63 164 337.55L161.92 339.41C161.23 337.19 159.38 330.11 159.38 330.11Z" fill="#FFBF9D"/>
<path d="M176.45 311.436L176.209 313.673L178.655 313.937L178.896 311.7L176.45 311.436Z" fill="white"/>
<path d="M126.16 410.33H52.5098V354.82H121.09C123.7 354.82 125.82 355.9 125.82 357.24L126.16 410.33Z" fill="#E91706"/>
<g opacity="0.3">
<path d="M95.2798 429.68H52.5098V354.82L95.0498 354.93L95.2798 429.68Z" fill="black"/>
</g>
<path d="M118.35 354.9C118.35 355.05 104.34 355.16 87.0595 355.16C69.7795 355.16 55.7695 355.04 55.7695 354.9C55.7695 354.75 69.7795 354.64 87.0595 354.64C104.34 354.64 118.35 354.75 118.35 354.9Z" fill="#263238"/>
<path d="M125.789 429.93C125.639 429.93 125.529 416.21 125.529 399.29C125.529 382.36 125.649 368.64 125.789 368.64C125.939 368.64 126.049 382.36 126.049 399.29C126.049 416.21 125.929 429.93 125.789 429.93Z" fill="#263238"/>
<path d="M186.239 410.06C186.239 410.21 172.769 410.32 156.159 410.32C139.539 410.32 126.069 410.2 126.069 410.06C126.069 409.91 139.539 409.8 156.159 409.8C172.769 409.79 186.239 409.91 186.239 410.06Z" fill="#263238"/>
</svg>
