<svg width="174" height="55" viewBox="0 0 174 55" fill="none" xmlns="http://www.w3.org/2000/svg">
<path d="M57.4877 30.4878C57.4877 32.9251 56.2798 34.1427 53.8642 34.1405H44.2631V48.3327H38.334V9.16602H53.8771C56.2928 9.16602 57.5006 10.3665 57.5006 12.7676L57.4877 30.4878ZM51.5101 29.1124V14.1942H44.2631V29.1124H51.5101Z" fill="#BC041B"/>
<path d="M80.8333 48.3327H75.1515L73.9995 40.9083H66.8213L65.6724 48.3327H60V48.2336L67.4349 9.16602H73.461L80.8333 48.3327ZM73.1918 35.8734L70.3994 18.2261L67.582 35.8734H73.1918Z" fill="#BC041B"/>
<path d="M104.167 9.39629L98.9173 25.7557C98.2692 27.3741 97.3986 30.1022 96.3055 33.9402V48.3327H90.3465V33.9402C90.0494 32.5405 89.6608 31.1613 89.1832 29.8112C88.2889 27.3207 87.8072 25.9689 87.738 25.7557L82.5146 9.3899C82.4951 9.37391 82.4951 9.29715 82.5146 9.16602H88.6227L93.3665 26.1811L98.0813 9.16602H104.167V9.39629Z" fill="#BC041B"/>
<path d="M125.833 44.7534C125.833 47.1396 124.704 48.3327 122.444 48.3327H111.068C108.788 48.3327 107.647 47.1396 107.645 44.7534V36.4371H113.191V43.2949H120.232V31.5081H110.852C108.62 31.5081 107.502 30.3353 107.5 27.9897V12.7676C107.5 10.3665 108.617 9.16602 110.852 9.16602H122.376C124.675 9.16602 125.824 10.3665 125.824 12.7676L125.833 44.7534ZM120.241 26.5599V14.1942H113.031V26.5599H120.241Z" fill="#32236F"/>
<path d="M149.996 44.7534C149.996 47.1396 148.815 48.3327 146.451 48.3327H134.563C132.173 48.3327 130.979 47.1396 130.981 44.7534V36.4371H136.784V43.2949H144.149V31.5081H134.337C132.001 31.5081 130.833 30.3353 130.833 27.9897V12.7676C130.833 10.3665 132.001 9.16602 134.337 9.16602H146.393C148.797 9.16602 150 10.3665 150 12.7676L149.996 44.7534ZM144.146 26.5599V14.1942H136.606V26.5599H144.146Z" fill="#32236F"/>
<path d="M173.321 44.7534C173.321 47.1396 172.139 48.3327 169.776 48.3327H157.899C155.51 48.3327 154.316 47.1396 154.318 44.7534V36.4371H160.12V43.2949H167.481V31.5081H157.674C155.334 31.5081 154.165 30.3353 154.167 27.9897V12.7676C154.167 10.3665 155.336 9.16602 157.674 9.16602H169.727C172.132 9.16602 173.334 10.3665 173.334 12.7676L173.321 44.7534ZM167.468 26.5599V14.1942H159.93V26.5599H167.468Z" fill="#32236F"/>
<path d="M12.1194 0.175164L27.6935 9.1418C27.8897 9.25613 28.0524 9.42099 28.1647 9.61955C28.2771 9.8181 28.3353 10.0432 28.3333 10.2719V28.7734C28.333 28.9999 28.2738 29.2224 28.1615 29.4185C28.0493 29.6146 27.8879 29.7774 27.6935 29.8906L18.2799 35.6348C18.0846 35.7589 17.8597 35.8274 17.629 35.833C17.3983 35.8385 17.1705 35.781 16.9695 35.6665C16.7685 35.552 16.602 35.3848 16.4875 35.1825C16.373 34.9803 16.3148 34.7505 16.3191 34.5176V18.5702C16.32 18.3426 16.2614 18.1188 16.149 17.9215C16.0367 17.7241 15.8747 17.5603 15.6794 17.4465L0.645801 8.52185C0.449655 8.40898 0.286594 8.2457 0.173169 8.04864C0.0597441 7.85157 0 7.62772 0 7.3998C0 7.17189 0.0597441 6.94804 0.173169 6.75097C0.286594 6.5539 0.449655 6.39065 0.645801 6.27777L10.8111 0.188092C11.0078 0.0673025 11.2332 0.00233494 11.4635 6.17821e-05C11.6937 -0.00221138 11.9203 0.0582815 12.1194 0.175164Z" fill="url(#paint0_linear_1098_16)"/>
<path d="M14.1661 20.4708V53.6945C14.1702 53.9254 14.1104 54.153 13.9931 54.3534C13.8758 54.5538 13.7053 54.7196 13.4997 54.8332C13.294 54.9468 13.0608 55.0041 12.8247 54.999C12.5885 54.9939 12.3581 54.9266 12.1578 54.8042L1.48933 48.563C1.2895 48.4502 1.12359 48.2879 1.00837 48.0926C0.89314 47.8972 0.832669 47.6756 0.833009 47.45V26.7185C0.832669 26.493 0.89314 26.2714 1.00837 26.076C1.12359 25.8806 1.2895 25.7184 1.48933 25.6056L12.1578 19.3611C12.3581 19.2387 12.5885 19.1714 12.8247 19.1663C13.0608 19.1612 13.294 19.2185 13.4997 19.3321C13.7053 19.4458 13.8758 19.6115 13.9931 19.8119C14.1104 20.0124 14.1702 20.24 14.1661 20.4708Z" fill="url(#paint1_linear_1098_16)"/>
<defs>
<linearGradient id="paint0_linear_1098_16" x1="0.0220695" y1="17.9147" x2="28.3461" y2="17.9147" gradientUnits="userSpaceOnUse">
<stop stop-color="#F71D00"/>
<stop offset="1" stop-color="#BC041B"/>
</linearGradient>
<linearGradient id="paint1_linear_1098_16" x1="0.842854" y1="37.0811" x2="14.1661" y2="37.0811" gradientUnits="userSpaceOnUse">
<stop stop-color="#F71D00"/>
<stop offset="1" stop-color="#BC041B"/>
</linearGradient>
</defs>
</svg>
