<svg width="128" height="41" viewBox="0 0 128 41" fill="none" xmlns="http://www.w3.org/2000/svg">
<path d="M42.4519 22.5148C42.4519 24.3147 41.5599 25.2138 39.776 25.2123H32.686V35.6926H28.3076V6.76953H39.7856C41.5695 6.76953 42.4614 7.65607 42.4614 9.42917L42.4519 22.5148ZM38.0376 21.4991V10.4826H32.686V21.4991H38.0376Z" fill="#1A1A1A"/>
<path d="M59.6922 35.6926H55.4964L54.6457 30.2099H49.3449L48.4965 35.6926H44.3076V35.6194L49.798 6.76953H54.2481L59.6922 35.6926ZM54.0493 26.4919L51.9872 13.46L49.9066 26.4919H54.0493Z" fill="#1A1A1A"/>
<path d="M76.9228 6.93958L73.0464 19.0204C72.5678 20.2155 71.9249 22.2301 71.1177 25.0643V35.6926H66.7172V25.0643C66.4978 24.0307 66.2109 23.0122 65.8582 22.0152C65.1977 20.1761 64.842 19.1778 64.7909 19.0204L60.9336 6.93486C60.9193 6.92305 60.9193 6.86637 60.9336 6.76953H65.4442L68.9474 19.3345L72.429 6.76953H76.9228V6.93958Z" fill="#1A1A1A"/>
<path d="M92.9232 33.0495C92.9232 34.8115 92.0889 35.6926 90.4203 35.6926H82.0196C80.3359 35.6926 79.4932 34.8115 79.4917 33.0495V26.9082H83.5874V31.9724H88.7866V23.2683H81.8604C80.2115 23.2683 79.3863 22.4022 79.3848 20.6701V9.42917C79.3848 7.65607 80.21 6.76953 81.8604 6.76953H90.3702C92.0677 6.76953 92.9164 7.65607 92.9164 9.42917L92.9232 33.0495ZM88.7934 19.6143V10.4826H83.469V19.6143H88.7934Z" fill="#1A1A1A"/>
<path d="M110.767 33.0495C110.767 34.8115 109.894 35.6926 108.148 35.6926H99.3694C97.6047 35.6926 96.7232 34.8115 96.7248 33.0495V26.9082H101.009V31.9724H106.449V23.2683H99.2027C97.4777 23.2683 96.6152 22.4022 96.6152 20.6701V9.42917C96.6152 7.65607 97.4777 6.76953 99.2027 6.76953H108.105C109.881 6.76953 110.769 7.65607 110.769 9.42917L110.767 33.0495ZM106.446 19.6143V10.4826H100.879V19.6143H106.446Z" fill="#1A1A1A"/>
<path d="M127.99 33.0495C127.99 34.8115 127.117 35.6926 125.372 35.6926H116.602C114.837 35.6926 113.956 34.8115 113.958 33.0495V26.9082H118.242V31.9724H123.677V23.2683H116.435C114.707 23.2683 113.844 22.4022 113.846 20.6701V9.42917C113.846 7.65607 114.709 6.76953 116.435 6.76953H125.336C127.112 6.76953 128 7.65607 128 9.42917L127.99 33.0495ZM123.668 19.6143V10.4826H118.101V19.6143H123.668Z" fill="#1A1A1A"/>
<path d="M8.94967 0.129352L20.4506 6.75086C20.5955 6.83529 20.7156 6.95704 20.7986 7.10366C20.8816 7.25029 20.9245 7.41653 20.923 7.5854V21.2481C20.9228 21.4153 20.8791 21.5796 20.7962 21.7244C20.7133 21.8692 20.5941 21.9895 20.4506 22.0731L13.499 26.3149C13.3548 26.4066 13.1887 26.4571 13.0183 26.4612C12.848 26.4654 12.6797 26.4229 12.5313 26.3383C12.3829 26.2538 12.2599 26.1303 12.1754 25.9809C12.0908 25.8316 12.0479 25.6619 12.0511 25.4899V13.7133C12.0517 13.5453 12.0084 13.38 11.9254 13.2343C11.8425 13.0886 11.7228 12.9676 11.5786 12.8836L0.476899 6.29306C0.332052 6.2097 0.211638 6.08913 0.127878 5.9436C0.0441187 5.79808 0 5.63277 0 5.46447C0 5.29616 0.0441187 5.13086 0.127878 4.98533C0.211638 4.8398 0.332052 4.71924 0.476899 4.63589L7.98356 0.138898C8.12884 0.0497002 8.29529 0.00172426 8.46532 4.56237e-05C8.63535 -0.00163302 8.80269 0.0430386 8.94967 0.129352Z" fill="url(#paint0_linear_1098_270)"/>
<path d="M10.4612 15.1179V39.6523C10.4642 39.8227 10.4201 39.9908 10.3334 40.1388C10.2468 40.2868 10.1209 40.4092 9.96909 40.4931C9.81723 40.577 9.64501 40.6193 9.47061 40.6156C9.2962 40.6118 9.12608 40.5621 8.97816 40.4717L1.0999 35.8628C0.952335 35.7795 0.829819 35.6597 0.744729 35.5154C0.65964 35.3711 0.614984 35.2075 0.615235 35.0409V19.7315C0.614984 19.565 0.65964 19.4013 0.744729 19.2571C0.829819 19.1128 0.952335 18.993 1.0999 18.9097L8.97816 14.2984C9.12608 14.208 9.2962 14.1583 9.47061 14.1545C9.64501 14.1508 9.81723 14.1931 9.96909 14.277C10.1209 14.3609 10.2468 14.4833 10.3334 14.6313C10.4201 14.7793 10.4642 14.9474 10.4612 15.1179Z" fill="url(#paint1_linear_1098_270)"/>
<defs>
<linearGradient id="paint0_linear_1098_270" x1="0.0162975" y1="13.2293" x2="20.9325" y2="13.2293" gradientUnits="userSpaceOnUse">
<stop stop-color="#F71D00"/>
<stop offset="1" stop-color="#BC041B"/>
</linearGradient>
<linearGradient id="paint1_linear_1098_270" x1="0.622505" y1="27.3839" x2="10.4612" y2="27.3839" gradientUnits="userSpaceOnUse">
<stop stop-color="#F71D00"/>
<stop offset="1" stop-color="#BC041B"/>
</linearGradient>
</defs>
</svg>
